<svg width="205" height="250" viewBox="0 0 205 250" fill="none" xmlns="http://www.w3.org/2000/svg">
<path d="M102 223V126L17 76V174.5L102 223Z" fill="url(#paint0_linear_45_2)"/>
<path d="M109.436 211.887C109.488 208.799 109.151 204.975 109.359 201.92C109.361 201.877 109.364 201.834 109.367 201.791C109.452 200.542 109.575 199.27 109.723 197.73C109.741 197.534 109.761 197.333 109.781 197.128C109.956 195.303 110.165 193.061 110.398 190.006C111.181 179.748 110.661 171.659 110.499 169.144C110.174 164.098 110.167 158.715 110.158 151.371C110.157 150.699 110.158 150.011 110.157 149.305C110.156 148.733 110.419 148.26 110.745 148.247C111.071 148.234 111.337 148.687 111.338 149.259C111.339 149.95 111.34 150.623 111.34 151.28C111.34 151.283 111.34 151.286 111.34 151.289C111.35 158.679 111.357 163.945 111.674 168.872C111.839 171.442 112.371 179.729 111.569 190.24C111.334 193.328 111.123 195.595 110.947 197.431C110.928 197.632 110.909 197.828 110.89 198.019C110.89 198.023 110.89 198.028 110.889 198.032C110.74 199.582 110.622 200.801 110.541 201.996C110.54 202.021 110.538 202.047 110.537 202.072C110.327 205.162 110.668 208.913 110.617 211.908C110.607 212.48 110.334 212.939 110.008 212.934C109.682 212.927 109.426 212.459 109.436 211.887ZM13.4421 100.049C13.8748 103.031 13.827 106.998 13.6344 110.501C13.4404 114.028 13.0914 117.22 12.8771 118.723C12.6677 120.191 12.5999 121.823 12.5582 123.77C12.5487 124.217 12.5405 124.68 12.532 125.159C12.5039 126.741 12.4724 128.501 12.3791 130.433C12.0363 137.531 12.0218 142.159 12.0529 145.463C12.0593 146.143 12.0681 146.776 12.0762 147.368C12.0762 147.368 12.0762 147.369 12.0762 147.37C12.1068 149.605 12.1292 151.272 11.9947 152.805C11.7552 155.534 11.5429 157.762 11.1282 160.452C10.5564 164.16 10.6243 169.443 11.0176 172.881C11.0391 173.07 11.0621 173.263 11.0845 173.458C11.1232 173.794 11.1631 174.141 11.2038 174.5L11.0476 177.562L14.1275 179.534C16.2595 180.45 18.8667 181.598 22.437 183.373C25.8658 185.078 28.7511 186.744 31.282 188.259C32.0073 188.694 32.6969 189.112 33.3594 189.513C35.0315 190.526 36.528 191.433 37.9722 192.226C46.9283 197.146 51.9403 200.252 54.9976 202.366C57.3488 203.992 58.5731 205.057 59.4561 205.826C59.723 206.058 59.9582 206.264 60.1845 206.449C62.2026 208.102 64.1565 209.442 66.5069 211.054C67.0286 211.412 67.5712 211.784 68.1369 212.175C70.0294 213.483 71.5297 214.3 72.7343 214.891C73.2612 215.149 73.7313 215.366 74.1751 215.569C74.1834 215.572 74.1916 215.576 74.1999 215.58C74.2618 215.608 74.3229 215.636 74.3838 215.664C74.4297 215.685 74.4762 215.705 74.5221 215.727C74.5422 215.731 74.5596 215.737 74.5728 215.74C74.5832 215.743 74.5912 215.746 74.5964 215.747C74.5975 215.747 74.5986 215.747 74.5997 215.747C74.6938 215.775 74.7695 215.808 74.7851 215.815C74.8123 215.826 74.8356 215.838 74.8477 215.844C74.9115 215.874 74.9917 215.916 75.0449 215.944C75.1815 216.017 75.4176 216.146 75.7817 216.348C76.1047 216.513 76.421 216.66 76.8172 216.843C76.8422 216.855 76.8672 216.866 76.8922 216.878C77.2786 217.057 77.7304 217.267 78.2917 217.54C78.8024 217.789 79.14 218.25 79.0454 218.569C78.9505 218.888 78.4596 218.945 77.9489 218.696C77.4201 218.438 76.9967 218.242 76.61 218.063C76.5854 218.052 76.5609 218.041 76.5363 218.029C76.1332 217.843 75.7516 217.665 75.349 217.459C75.2143 217.39 75.0762 217.317 74.9477 217.249C74.7127 217.131 74.4411 217.005 74.1153 216.856C74.0499 216.826 73.9828 216.794 73.9138 216.763C73.4708 216.56 72.9549 216.324 72.3817 216.043C71.0401 215.384 69.3813 214.478 67.3219 213.055C66.7818 212.682 66.2572 212.322 65.7448 211.971C63.3849 210.353 61.2849 208.913 59.1427 207.159C58.8488 206.918 58.5726 206.677 58.277 206.42C57.4008 205.659 56.3549 204.748 54.1812 203.245C51.2687 201.231 46.3792 198.194 37.4739 193.301C35.958 192.469 34.3619 191.501 32.6613 190.471C32.0121 190.078 31.346 189.676 30.6648 189.269C28.1733 187.777 25.3787 186.164 22.0681 184.518C18.3523 182.67 15.7156 181.522 13.528 180.585L9.80524 178.202L9.9941 174.5C9.97089 174.297 9.94797 174.098 9.9254 173.902C9.91521 173.816 9.90501 173.73 9.89482 173.645C9.88258 173.538 9.8704 173.433 9.85842 173.328C9.43925 169.665 9.35621 164.044 9.98802 159.946C10.3845 157.375 10.5886 155.242 10.8268 152.528C10.9439 151.194 10.9246 149.768 10.8952 147.578C10.887 146.964 10.879 146.288 10.8719 145.538C10.8403 142.174 10.8544 137.476 11.201 130.299C11.2914 128.427 11.3216 126.744 11.3496 125.171C11.3583 124.682 11.3672 124.202 11.3772 123.733C11.4191 121.776 11.4875 119.955 11.7296 118.258C11.9287 116.863 12.269 113.773 12.4577 110.342C12.6478 106.887 12.6763 103.219 12.2961 100.597C12.2566 100.325 12.2175 100.05 12.1782 99.7752C11.8391 97.4104 11.4936 94.9995 10.9185 93.0583C9.08639 88.647 8.5369 82.4212 8.46879 76L9.14598 60.7355L21.3255 68.6467C26.7406 71.7552 32.0842 75.3496 36.447 78.0405C36.5632 78.1123 36.6794 78.184 36.7956 78.2557C47.0105 84.5559 54.543 88.9497 57.1106 90.4473C57.2303 90.5171 57.3393 90.5806 57.4372 90.6378C57.5247 90.6888 57.604 90.7344 57.6737 90.7752C58.7189 91.3865 59.6636 91.8935 60.6535 92.4249C60.7075 92.4539 60.7616 92.4829 60.8156 92.5118C61.8615 93.0735 62.9573 93.6657 64.2236 94.4152C68.9322 97.202 72.804 99.4171 76.1593 101.325C76.7805 101.678 77.3842 102.022 77.9732 102.356C77.975 102.357 77.9767 102.358 77.9784 102.359C80.5636 103.827 82.8572 105.128 85.0142 106.397C88.9475 108.71 91.642 110.208 93.7492 111.354C94.41 111.713 95.0202 112.043 95.5963 112.353C96.8419 113.023 97.9299 113.609 99.0358 114.241C101.116 115.429 103.057 116.476 104.968 117.509C105.139 117.601 105.309 117.694 105.479 117.786C105.821 117.971 106.163 118.156 106.505 118.341L111.121 121.383L110.885 126C110.953 127.962 111.008 129.926 111.01 131.982C111.01 132.554 110.745 133.029 110.419 133.041C110.093 133.052 109.828 132.597 109.827 132.026C109.826 129.971 109.769 128.004 109.7 126L109.904 121.999L105.904 119.363C105.613 119.206 105.322 119.048 105.029 118.89C104.858 118.797 104.686 118.705 104.514 118.612C102.607 117.582 100.632 116.513 98.513 115.303C97.4468 114.694 96.4192 114.141 95.1981 113.484C94.6155 113.17 93.988 112.832 93.2915 112.453C91.1524 111.29 88.422 109.772 84.4508 107.437C82.3198 106.184 80.056 104.898 77.4724 103.432C76.8796 103.095 76.2697 102.749 75.6409 102.392C72.2772 100.479 68.3856 98.2524 63.6511 95.4503C62.4547 94.7422 61.4161 94.1802 60.3747 93.621C60.3164 93.5895 60.258 93.558 60.1997 93.5265C59.2185 92.9998 58.2208 92.4652 57.1167 91.8194C56.9692 91.7331 56.7811 91.6225 56.5543 91.4902C53.9829 89.9904 46.4195 85.5794 36.1672 79.2562C36.1355 79.2364 36.1038 79.2167 36.072 79.1969C29.2025 74.96 25.327 72.5696 22.2245 71.0833C21.5764 70.7729 20.9757 70.4763 20.4159 70.1929L10.7975 63.9453L10.2628 76C10.3727 77.7398 10.41 79.1561 10.4307 80.3763C10.4361 80.6927 10.4412 80.9921 10.4453 81.2776C10.4629 82.5109 10.477 83.4856 10.5589 84.4596C10.8066 87.4064 11.2125 89.5195 11.9699 92.0763C12.6119 94.2438 12.9918 96.8991 13.3242 99.2252C13.3247 99.2287 13.3252 99.2322 13.3256 99.2356C13.3651 99.5116 13.4036 99.7834 13.4421 100.049ZM85.8103 220.927C86.3019 221.219 86.5659 221.682 86.3999 221.962C86.2332 222.243 85.6988 222.234 85.2068 221.942C84.0349 221.247 82.8629 220.551 81.691 219.856C81.1994 219.564 80.9353 219.1 81.1013 218.82C81.2681 218.54 81.8025 218.548 82.2944 218.84C83.4664 219.536 84.6383 220.231 85.8103 220.927ZM19.3208 97.6633C19.387 98.2212 19.1803 98.777 18.8607 98.9038C18.5413 99.0298 18.2292 98.6796 18.1632 98.1221C18.1282 97.8273 18.065 97.3425 17.9797 96.6903C17.5382 93.3151 16.508 85.4404 15.7728 76L15.8703 73.8043L17.6222 74.9423C20.9561 76.5693 24.4743 78.3572 27.9976 80.2623C29.0517 80.8323 29.998 81.3395 30.8999 81.8226C34.7572 83.8888 38.2082 84.945 45.3991 89.2145C64.7379 100.697 83.7856 112.652 103.057 124.202L104.141 124.916L104.085 126C103.981 138.661 104.024 151.317 104.394 163.971C104.692 174.11 104.736 184.218 104.716 194.366C104.7 202.823 104.094 218.327 104.032 221.975C104.022 222.547 103.749 223.006 103.423 223C103.097 222.994 102.841 222.526 102.851 221.954C102.912 218.332 103.517 202.88 103.534 194.454C103.553 184.326 103.51 174.239 103.213 164.119C102.841 151.423 102.612 138.715 102.479 126L102.491 125.751L102.243 125.587C82.7401 114.39 63.3713 102.925 44.0339 91.444C36.9129 87.216 34.3095 84.993 30.4662 82.9342C29.5622 82.45 28.6102 81.9406 27.5464 81.3654C23.9663 79.4295 20.3929 77.6168 17.0159 75.973L16.9711 75.9439L16.9686 76C17.6913 85.1623 18.6892 92.7984 19.1301 96.1731C19.218 96.8461 19.2839 97.3514 19.3208 97.6633ZM18.8272 124.263C18.9166 130.649 18.7574 139.726 18.6175 147.659C18.5492 151.528 18.4847 155.124 18.4573 158.003C18.4149 162.464 18.1322 165.273 17.8515 168.058C17.8486 168.088 17.8457 168.118 17.8428 168.147C17.6489 170.072 17.4571 171.997 17.3428 174.5L17.1699 174.202C18.1147 174.8 19.167 175.441 20.3746 176.146C24.3204 178.448 29.9057 181.413 35.5395 184.405C35.5438 184.407 35.5481 184.41 35.5525 184.412C41.1562 187.388 47.1366 189.886 51.1515 192.23C65.1427 200.396 73.4159 206.051 77.4868 209.107C84.6075 214.454 93.93 218.334 101.07 224.031C101.78 224.795 99.8764 224.744 98.4108 223.61C98.3569 223.571 98.3029 223.532 98.249 223.492C97.7345 223.121 97.2821 222.799 96.6288 222.375C95.6681 221.785 94.941 221.367 94.2772 220.986C92.5355 219.987 80.5343 212.892 76.5588 209.907C72.6953 207.007 63.8967 202.695 49.8159 194.477C45.8753 192.177 40.7178 188.496 35.084 185.505C35.0686 185.496 35.0532 185.488 35.0378 185.48C29.4453 182.51 23.8055 179.516 19.7938 177.176C18.5904 176.474 17.534 175.831 16.583 175.231L16.1359 174.945L16.1586 174.5C16.2769 171.838 16.4795 169.809 16.6793 167.826C16.6822 167.799 16.6851 167.771 16.688 167.744C16.9661 164.985 17.2355 162.306 17.2763 158.009C17.3043 155.067 17.3678 151.428 17.4365 147.535C17.576 139.636 17.7348 130.686 17.6462 124.355C17.6384 123.783 17.8967 123.299 18.2229 123.274C18.5489 123.249 18.8191 123.692 18.8272 124.263ZM26.1883 124.395C27.4099 141.131 27.1721 157.955 26.0121 174.5L21.4663 166.672C22.4607 167.336 23.4515 168.003 24.4386 168.674C28.4276 171.001 33.9794 174.274 39.5231 177.544C39.5856 177.581 39.648 177.618 39.7105 177.656C45.1942 180.89 50.654 184.11 54.5841 186.404C68.5751 194.57 77.1774 199.724 81.2484 202.78C85.0441 205.63 86.1787 206.279 87.8599 207.243C87.9056 207.27 87.9512 207.297 87.9968 207.323C88.0003 207.324 88.0038 207.325 88.0074 207.326C88.0726 207.346 88.1254 207.366 88.1522 207.377C88.2068 207.399 88.2497 207.42 88.2657 207.428C88.3028 207.446 88.3329 207.463 88.3438 207.469C88.3879 207.493 88.4378 207.522 88.4697 207.541C88.7665 207.717 89.6875 208.284 90.4072 208.751C91.1448 209.229 91.6563 209.595 92.1941 209.983C92.2484 210.022 92.3028 210.062 92.3572 210.101C92.8418 210.452 93.3691 210.833 94.1408 211.36C94.6109 211.682 94.8131 212.142 94.5924 212.388C94.3715 212.633 93.8119 212.572 93.3419 212.251C92.53 211.696 91.9689 211.29 91.4821 210.938C91.4282 210.899 91.3742 210.86 91.3203 210.821C90.8056 210.449 90.3524 210.127 89.6988 209.703C88.7384 209.113 88.0122 208.695 87.3485 208.315C85.6082 207.316 84.2977 206.564 80.3224 203.58C76.4591 200.679 68.0854 195.651 54.004 187.433C50.0666 185.135 44.6004 181.911 39.1213 178.679C39.0569 178.641 38.9924 178.604 38.928 178.566C33.3812 175.294 27.8384 172.024 23.8585 169.702C22.8266 169.1 21.7944 168.502 20.762 167.907L24.591 174.5C24.666 157.779 24.2041 141.333 25.0073 124.488C24.9608 121.167 24.9425 118.132 24.9258 115.319C24.8766 107.044 24.8381 100.693 24.1205 94.6381C23.9632 93.3107 23.8296 89.8314 23.6632 84.8034C23.6145 83.33 23.5634 81.7136 23.5074 79.9668C23.4672 78.7113 23.4249 77.3878 23.3799 76L13.7653 81.499C16.704 83.1019 19.9725 84.881 23.5287 86.804C24.5829 87.374 25.5292 87.8812 26.431 88.3643C30.2884 90.4305 33.3337 92.0607 40.5249 96.3304C49.3729 101.584 64.0848 110.578 71.9182 115.447C75.8415 117.886 78.0355 119.298 79.5811 120.308C80.0115 120.589 80.3888 120.839 80.7355 121.067C81.6411 121.662 82.3446 122.124 83.2802 122.707C88.7538 126.116 92.9872 128.536 98.6676 131.665L95.4276 126C95.4698 127.496 95.5186 129.078 95.5727 130.785C95.5906 131.355 95.3407 131.853 95.0149 131.896C94.6891 131.939 94.4099 131.511 94.3917 130.941C94.3359 129.178 94.2856 127.545 94.2422 126L98.0667 132.687C92.4201 129.575 88.1458 127.13 82.6376 123.699C81.6609 123.091 80.9079 122.596 79.9864 121.989C79.6447 121.765 79.2799 121.524 78.8717 121.258C77.3518 120.264 75.1808 118.867 71.2781 116.441C63.4588 111.581 48.7681 102.6 39.9473 97.3624C32.8264 93.1345 29.8408 91.5347 25.9974 89.4759C25.0937 88.9918 24.1423 88.4829 23.0788 87.9078C19.4636 85.9529 16.1421 84.1451 13.1641 82.521L24.5655 76C24.6088 77.3345 24.6497 78.6086 24.6884 79.8188C24.7443 81.5634 24.7957 83.1759 24.8442 84.6435C25.0139 89.7728 25.1434 93.0421 25.2782 94.1793C26.0209 100.446 26.0605 107.073 26.1097 115.426C26.126 118.207 26.1433 121.18 26.1883 124.395ZM95.3091 163.584C95.2924 163.013 95.5438 162.518 95.8697 162.478C96.1956 162.437 96.4734 162.867 96.4901 163.437C96.5784 166.451 96.6513 168.617 96.7085 170.311C96.8144 173.446 96.8661 174.961 96.857 177.23C96.8336 183.087 96.8218 188.742 96.8119 193.831C96.7954 202.288 96.7822 209.181 96.7201 212.829C96.7104 213.401 96.4376 213.86 96.1115 213.854C95.7856 213.848 95.5296 213.38 95.5392 212.808C95.6008 209.186 95.6145 202.345 95.6309 193.919C95.6408 188.825 95.651 183.151 95.6746 177.257C95.6834 175.056 95.6356 173.626 95.5319 170.561C95.4746 168.868 95.3998 166.678 95.3091 163.584Z" fill="white" fill-opacity="0.5"/>
<path d="M17.5 75L102.5 125.5L188 75L101.5 26L17.5 75Z" fill="url(#paint1_linear_45_2)"/>
<path d="M23.3253 87.11C25.9731 88.7441 29.4564 90.4215 31.9965 92.1719C32.0322 92.1965 32.0678 92.221 32.1034 92.2456C33.1415 92.961 34.1809 93.721 35.4386 94.6404C35.5987 94.7575 35.7627 94.8778 35.9304 95.0003C37.4216 96.0896 39.256 97.4233 41.7825 99.1953C50.2662 105.146 57.5359 108.86 59.7972 110.015C64.3326 112.332 68.9972 115.095 75.362 118.866C75.944 119.211 76.5398 119.565 77.1515 119.927C77.6471 120.221 77.9226 120.691 77.7674 120.978C77.6117 121.265 77.0842 121.26 76.5884 120.967C75.9894 120.612 75.4057 120.266 74.837 119.929C74.8344 119.928 74.8318 119.926 74.8292 119.925C68.4244 116.131 63.861 113.427 59.4325 111.165C57.1219 109.985 49.6744 106.178 40.9813 100.081C38.4278 98.2902 36.5721 96.9429 35.0719 95.847C34.9077 95.7271 34.7478 95.6097 34.5922 95.496C34.5886 95.4933 34.585 95.4905 34.5813 95.4878C33.3155 94.5625 32.3201 93.834 31.3266 93.1493C31.3053 93.135 31.2841 93.1206 31.2628 93.1063C28.6941 91.3361 25.272 89.6995 22.704 88.1145C22.2138 87.8118 21.9553 87.3411 22.127 87.0637C22.2988 86.7867 22.8352 86.8078 23.3253 87.11ZM169.661 60.5222C166.834 59.4181 163.381 57.407 160.405 55.5003C157.41 53.5803 154.784 51.6918 153.573 50.7594C152.389 49.848 150.992 48.9789 149.306 47.976C148.92 47.7461 148.518 47.5091 148.102 47.2639C146.729 46.454 145.202 45.5526 143.555 44.5122C137.503 40.69 133.455 38.38 130.543 36.7663C129.944 36.4344 129.385 36.128 128.862 35.8412C128.862 35.8407 128.861 35.8402 128.86 35.8397C126.887 34.7571 125.414 33.9489 124.137 33.0707C121.863 31.5075 120.015 30.2164 117.862 28.5205C114.894 26.1816 110.23 23.6179 107.024 22.2533C106.848 22.1784 106.667 22.1026 106.485 22.0252C105.804 21.736 105.077 21.4273 104.285 21.0836L101.788 19.4971L98.6529 21.1193C96.9725 22.3551 94.9245 23.8172 92.1869 25.6295C88.9708 27.7586 86.0633 29.4348 83.4664 30.8783C82.7222 31.292 82.0095 31.6824 81.3257 32.0579C79.5999 33.0059 78.055 33.8541 76.6349 34.7133C67.8284 40.0416 62.5941 42.8476 59.21 44.4496C56.6074 45.6817 55.0628 46.2144 53.9484 46.5984C53.6116 46.7145 53.3137 46.8162 53.0381 46.9204C50.581 47.8497 48.428 48.879 45.838 50.1174C45.2632 50.3922 44.6651 50.6779 44.0391 50.9745C41.9453 51.9667 40.4766 52.8631 39.3536 53.615C38.8624 53.944 38.4366 54.2445 38.0356 54.5288C38.0283 54.5342 38.021 54.5396 38.0137 54.545C37.9578 54.5846 37.902 54.6235 37.8469 54.6625C37.8054 54.6919 37.7645 54.7224 37.7229 54.7517C37.7087 54.7668 37.6951 54.7792 37.6853 54.7888C37.6775 54.7964 37.6714 54.8022 37.6674 54.806C37.6668 54.8069 37.6662 54.8078 37.6656 54.8088C37.594 54.8767 37.5271 54.9261 37.5134 54.9363C37.4895 54.9541 37.4676 54.9686 37.4565 54.9762C37.398 55.0167 37.3208 55.0653 37.2692 55.0973C37.1366 55.1795 36.905 55.3204 36.5457 55.5362C36.2391 55.7348 35.9513 55.9363 35.5914 56.189C35.5687 56.205 35.5461 56.221 35.5235 56.237C35.1725 56.4835 34.7613 56.7712 34.2396 57.1225C33.7649 57.4421 33.1941 57.5058 32.9646 57.2644C32.7353 57.0228 32.9343 56.5679 33.4089 56.2483C33.9005 55.9173 34.2853 55.6473 34.6365 55.4007C34.6587 55.3849 34.6809 55.3692 34.7031 55.3534C35.0693 55.0963 35.4164 54.8531 35.7992 54.6061C35.9273 54.5234 36.0604 54.4397 36.1852 54.3624C36.406 54.2167 36.6529 54.0436 36.9477 53.835C37.0068 53.7932 37.0682 53.7506 37.1306 53.7064C37.5308 53.4226 37.9969 53.092 38.5313 52.7342C39.7821 51.8967 41.4087 50.9074 43.6873 49.8277C44.2849 49.5446 44.8629 49.2681 45.4274 48.9981C48.0273 47.7545 50.3403 46.6476 52.9484 45.6611C53.3063 45.5258 53.6554 45.406 54.0283 45.2773C55.1335 44.8959 56.4535 44.441 58.8595 43.302C62.0833 41.7759 67.1962 39.042 75.9528 33.744C77.4433 32.8422 79.0913 31.9377 80.8466 30.9736C81.5166 30.6056 82.2029 30.2273 82.9018 29.8388C85.4583 28.4177 88.2742 26.7941 91.3795 24.7384C94.2422 22.8432 96.3267 21.3454 98.0445 20.0763L101.85 18.1076L104.88 20.033C105.512 20.3053 106.103 20.5567 106.667 20.7962C106.747 20.8299 106.827 20.8636 106.908 20.8973C107.007 20.9394 107.106 20.9813 107.203 21.0229C110.62 22.4769 115.588 25.1953 118.867 27.7792C120.925 29.4007 122.694 30.6372 124.955 32.1918C126.067 32.9563 127.326 33.6475 129.26 34.709C129.803 35.007 130.399 35.3355 131.059 35.7016C134.023 37.3442 138.134 39.689 144.253 43.5539C145.849 44.5616 147.31 45.4238 148.675 46.2291C149.099 46.4793 149.514 46.7251 149.921 46.967C151.615 47.9748 153.177 48.9383 154.546 49.9918C155.671 50.8577 158.21 52.6877 161.124 54.5552C164.059 56.436 167.26 58.2821 169.745 59.2527C170.003 59.3536 170.263 59.4561 170.523 59.5582C172.763 60.4373 175.046 61.3336 177.031 61.797C181.522 62.3581 186.862 64.7074 192.197 67.5919L204.976 75.5993L192.33 82.3309C186.682 85.8192 180.481 88.9821 175.711 91.667C175.591 91.7344 175.472 91.8019 175.352 91.8693C164.817 97.7996 157.271 102.294 154.698 103.826C154.578 103.898 154.469 103.963 154.371 104.021C154.283 104.073 154.204 104.121 154.135 104.163C153.086 104.785 152.178 105.37 151.227 105.983C151.175 106.017 151.123 106.05 151.071 106.084C150.066 106.731 149.009 107.408 147.731 108.158C142.978 110.948 139.137 113.279 135.819 115.305C135.205 115.68 134.607 116.045 134.025 116.4C134.023 116.401 134.021 116.403 134.02 116.404C131.465 117.966 129.199 119.352 127.029 120.634C123.072 122.972 120.437 124.615 118.399 125.912C117.759 126.319 117.172 126.696 116.617 127.053C115.418 127.823 114.371 128.496 113.275 129.162C111.213 130.415 109.343 131.614 107.5 132.795C107.335 132.9 107.171 133.004 107.007 133.109C107.004 133.111 107.001 133.113 106.998 133.115L101.967 135.753L97.9826 133.104C95.9042 131.968 93.8485 130.838 91.7167 129.574C91.2212 129.28 90.9461 128.808 91.1023 128.521C91.259 128.235 91.7879 128.241 92.2832 128.535C94.357 129.764 96.3647 130.869 98.4459 132.006C98.4933 132.032 98.5407 132.058 98.5883 132.084L102.039 134.378L106.395 132.094C106.514 132.017 106.634 131.94 106.754 131.863C108.592 130.686 110.498 129.467 112.598 128.19C113.655 127.548 114.644 126.912 115.819 126.157C116.38 125.797 116.984 125.409 117.657 124.98C119.727 123.663 122.396 121.998 126.391 119.637C128.535 118.371 130.773 117.003 133.326 115.442C133.912 115.084 134.514 114.715 135.136 114.335C138.462 112.304 142.323 109.961 147.102 107.156C148.31 106.447 149.312 105.806 150.313 105.161C150.369 105.125 150.426 105.089 150.482 105.053C151.425 104.446 152.383 103.828 153.49 103.17C153.638 103.082 153.828 102.97 154.055 102.835C156.631 101.3 164.208 96.7869 174.781 90.8348C174.814 90.8165 174.847 90.7982 174.88 90.7799C181.964 86.7917 185.961 84.5418 188.785 82.5346C189.743 81.8542 190.607 81.2656 191.394 80.7462L201.306 75.4697L191.289 69.1933C190.17 68.6307 189.224 68.1248 188.386 67.6688C188.106 67.5164 187.842 67.3722 187.589 67.234C186.5 66.637 185.639 66.1653 184.744 65.753C182.04 64.5056 179.988 63.8096 177.374 63.1993C175.157 62.6818 172.643 61.694 170.441 60.8284C170.437 60.8271 170.434 60.8258 170.431 60.8245C170.169 60.7218 169.912 60.6204 169.661 60.5222ZM27.4931 61.9666C26.9908 62.2483 26.4547 62.2466 26.295 61.9625C26.1358 61.6778 26.4138 61.2179 26.9162 60.9359C28.1136 60.2644 29.3108 59.593 30.5081 58.9215C31.0104 58.64 31.5466 58.6415 31.7062 58.9257C31.8655 59.2103 31.5873 59.6703 31.085 59.9523C29.8877 60.6237 28.6904 61.2952 27.4931 61.9666ZM168.854 66.8215C168.332 66.6021 167.947 66.1463 167.993 65.8052C168.04 65.4648 168.501 65.3671 169.022 65.5864C169.298 65.7024 169.754 65.8881 170.368 66.1376C173.417 67.3776 180.368 70.2046 188.561 74.01L190.269 75.0801L188.579 75.9797C185.259 78.3201 181.643 80.7795 177.898 83.1758C176.881 83.8264 175.973 84.4127 175.107 84.9716C171.404 87.3619 168.786 89.8826 161.516 94.1372C142.299 105.383 122.818 116.162 103.566 127.304L102.374 127.929L101.43 127.301C90.1918 120.489 78.8807 113.808 67.3948 107.428C58.4623 102.467 49.6865 97.305 40.9092 92.0672C33.5934 87.7015 20.4774 79.2044 17.3502 77.2743C16.8598 76.9716 16.6015 76.5009 16.7732 76.2235C16.945 75.9463 17.4813 75.9672 17.9715 76.2697C21.0767 78.1862 34.1485 86.656 41.4368 91.0053C50.1973 96.233 58.9547 101.385 67.8699 106.337C79.3925 112.737 90.8496 119.275 102.262 125.901L102.472 126.041L102.737 125.902C121.794 114.388 141.01 103.108 160.227 91.8628C167.426 87.6496 170.653 86.4361 174.343 84.0545C175.211 83.4943 176.124 82.9041 177.151 82.2474C180.951 79.8152 184.617 77.3182 187.97 74.9491L187.971 75.0515C180.029 71.3723 173.298 68.6341 170.254 67.3953C169.621 67.1377 169.145 66.9442 168.854 66.8215ZM145.784 53.1858C140.144 50.0932 132.266 45.4481 125.383 41.388C122.026 39.408 118.906 37.5663 116.396 36.113C112.507 33.8613 110.185 32.221 107.882 30.5941C107.858 30.5767 107.833 30.5594 107.808 30.542C105.949 29.2282 104.087 27.9162 101.356 26.254L101.647 26.2522C100.98 26.6138 100.271 27.0079 99.51 27.442C95.5135 29.7225 90.1108 33.0966 84.6611 36.5C84.6568 36.5025 84.6525 36.505 84.6481 36.5076C79.2275 39.8928 74.0305 43.843 69.963 46.163C55.7887 54.2475 46.6892 58.6158 41.9739 60.6288C33.7258 64.1498 25.6377 70.3151 17.0749 73.6781C16.0515 73.9136 17.0594 72.2851 18.7862 71.5772C18.8475 71.5499 18.9089 71.5225 18.9702 71.4952C19.5534 71.2334 20.0616 71.0007 20.7607 70.6446C21.7596 70.1042 22.4904 69.6807 23.1572 69.2939C24.9067 68.2788 37.1434 61.3893 41.7483 59.4234C46.2233 57.513 54.4212 52.018 68.6862 43.8816C72.6784 41.6046 78.4864 38.9591 83.936 35.5557C83.951 35.5465 83.9659 35.5372 83.9808 35.5279C89.3906 32.1495 94.8458 28.7423 98.909 26.4236C99.6691 25.9899 100.38 25.5944 101.051 25.2303L101.545 24.9745L101.939 25.2247C104.811 26.9707 106.763 28.3468 108.663 29.6892C108.686 29.7053 108.708 29.7214 108.731 29.7376C111.012 31.3494 113.227 32.9139 116.973 35.0824C119.538 36.5677 122.695 38.4293 126.074 40.4221C132.928 44.4649 140.694 49.0469 146.286 52.1129C146.791 52.3898 147.088 52.8549 146.949 53.1512C146.81 53.4471 146.289 53.4623 145.784 53.1858ZM142.041 59.5253C126.364 52.0864 111.366 43.2639 97.1046 33.7592L105.993 33.7029C105.311 34.0371 104.629 34.3694 103.946 34.6997C99.9057 37.0053 94.2525 40.1967 88.6065 43.383C88.5425 43.4187 88.4785 43.4544 88.4145 43.49C82.8296 46.6418 77.2694 49.78 73.2878 52.0509C59.1137 60.1354 50.2831 65.0396 45.5678 67.0526C41.1711 68.9295 40.0328 69.5915 38.3446 70.5716C38.2984 70.598 38.2522 70.6244 38.206 70.6508C38.2034 70.6534 38.2009 70.656 38.1983 70.6586C38.1482 70.7054 38.104 70.7412 38.0809 70.7591C38.0339 70.7955 37.9939 70.8221 37.9789 70.8321C37.9442 70.8552 37.9142 70.873 37.9036 70.8794C37.8602 70.9057 37.8101 70.9347 37.7775 70.953C37.4743 71.1231 36.5159 71.6407 35.7462 72.0334C34.9575 72.4357 34.3809 72.6977 33.7713 72.9713C33.7095 72.9989 33.6478 73.0265 33.586 73.0541C33.0364 73.3004 32.4384 73.5685 31.5895 73.9759C31.0723 74.2241 30.5707 74.1704 30.4686 73.856C30.367 73.5416 30.7033 73.0859 31.2201 72.8377C32.1132 72.409 32.7495 72.1238 33.3016 71.8763C33.363 71.849 33.4243 71.8216 33.4856 71.7943C34.069 71.5325 34.578 71.2992 35.2775 70.9429C36.276 70.4027 37.0059 69.9798 37.6726 69.593C39.4206 68.5787 40.737 67.815 45.3417 65.8493C49.8166 63.9391 58.4218 59.1705 72.6875 51.0338C76.6765 48.7587 82.2431 45.6168 87.8233 42.4676C87.8888 42.4305 87.9543 42.3934 88.0198 42.3564C93.6689 39.1683 99.3147 35.9829 103.346 33.6827C104.005 33.3062 104.664 32.9289 105.321 32.5508L97.762 32.5987C112.762 41.2194 127.796 49.1511 142.541 58.4518C145.475 60.06 148.144 61.5509 150.617 62.9325C157.894 66.9985 163.479 70.1181 169.139 72.4996C170.38 73.0217 173.496 74.6328 177.984 76.9844C179.3 77.6735 180.741 78.4315 182.3 79.2501C183.114 79.6777 183.96 80.1222 184.838 80.5827L184.737 69.4755C181.648 71.4356 178.161 73.6521 174.342 76.0959C173.326 76.7465 172.417 77.3328 171.551 77.8917C167.848 80.282 164.925 82.1696 157.654 86.4243C148.709 91.6593 133.606 100.239 125.495 104.768C121.432 107.037 119.118 108.282 117.474 109.152C117.017 109.394 116.613 109.605 116.243 109.8C115.276 110.308 114.526 110.702 113.556 111.243C108.224 114.214 104.196 116.645 99.1414 119.814L105.873 119.822C104.26 118.921 102.537 117.967 100.638 116.918C100.135 116.64 99.8325 116.169 99.9616 115.867C100.091 115.565 100.604 115.545 101.107 115.823C103.055 116.899 104.822 117.877 106.479 118.803L98.5387 118.793C103.569 115.641 107.636 113.189 113 110.2C114.012 109.636 114.816 109.214 115.8 108.697C116.164 108.505 116.554 108.301 116.988 108.071C118.604 107.216 120.894 105.983 124.936 103.727C133.033 99.2054 148.113 90.6382 157.031 85.4192C164.231 81.2061 167.097 79.3562 170.787 76.9745C171.655 76.4146 172.568 75.8247 173.593 75.1683C177.47 72.6873 181.01 70.4375 184.134 68.4546L184.253 81.6143C183.423 81.1784 182.621 80.7571 181.848 80.3511C180.291 79.5336 178.852 78.7777 177.542 78.0914C172.963 75.6924 170.034 74.182 168.971 73.7347C163.113 71.2696 157.285 68.0139 149.94 63.9099C147.495 62.5433 144.88 61.0821 142.041 59.5253ZM72.3705 99.8169C72.8732 100.096 73.1734 100.567 73.042 100.868C72.9104 101.169 72.3968 101.187 71.8942 100.908C69.2393 99.4329 67.3259 98.381 65.83 97.5588C63.0613 96.0371 61.723 95.302 59.7628 94.1269C54.7025 91.0933 49.811 88.1734 45.4099 85.5471C38.0942 81.1815 32.1318 77.6238 29.0047 75.6937C28.5144 75.391 28.256 74.9203 28.4277 74.6429C28.5996 74.366 29.136 74.3869 29.626 74.6892C32.7312 76.6057 38.6484 80.1371 45.9367 84.4864C50.343 87.1158 55.2514 90.0438 60.3434 93.0965C62.2446 94.2362 63.5077 94.931 66.2149 96.4188C67.7094 97.2401 69.6448 98.3029 72.3705 99.8169Z" fill="white" fill-opacity="0.5"/>
<path d="M103 223L188 174V76L103 126V223Z" fill="url(#paint2_linear_45_2)"/>
<path d="M116.335 223.896C119.035 222.4 122.177 220.199 124.927 218.854C124.965 218.835 125.004 218.816 125.042 218.797C126.166 218.247 127.329 217.718 128.736 217.078C128.915 216.997 129.099 216.913 129.286 216.828C130.954 216.069 132.999 215.131 135.761 213.808C145.033 209.366 151.776 204.879 153.873 203.483C158.08 200.683 162.737 197.991 169.091 194.317C169.672 193.981 170.268 193.638 170.878 193.285C171.373 192.999 171.914 192.99 172.089 193.266C172.263 193.543 172.003 193.999 171.508 194.285C170.911 194.631 170.328 194.968 169.76 195.296C169.758 195.297 169.755 195.299 169.753 195.3C163.358 198.997 158.803 201.631 154.696 204.365C152.553 205.792 145.643 210.388 136.142 214.94C133.352 216.277 131.284 217.226 129.606 217.99C129.422 218.074 129.243 218.155 129.069 218.234C129.065 218.236 129.061 218.238 129.057 218.239C127.641 218.884 126.526 219.39 125.451 219.916C125.428 219.928 125.406 219.939 125.383 219.95C122.603 221.311 119.526 223.478 116.907 224.929C116.407 225.206 115.873 225.199 115.715 224.914C115.558 224.628 115.835 224.173 116.335 223.896ZM166.017 84.8033C163.668 86.6872 160.226 88.6561 157.111 90.2649C153.975 91.885 151.048 93.2017 149.645 93.7783C148.274 94.3419 146.834 95.1104 145.136 96.0609C144.746 96.2789 144.343 96.5065 143.927 96.7419C142.549 97.5193 141.017 98.3841 139.306 99.2827C133.018 102.584 129.024 104.916 126.194 106.617C125.611 106.967 125.071 107.295 124.565 107.602C124.564 107.603 124.563 107.603 124.563 107.604C122.653 108.762 121.229 109.626 119.84 110.287C117.368 111.463 115.341 112.409 112.814 113.415C109.329 114.801 104.813 117.536 102.052 119.617C101.9 119.731 101.745 119.849 101.589 119.967C101.123 120.318 100.633 120.688 100.107 121.081L97.4744 122.454L97.2933 126C97.5306 128.157 97.7855 130.784 97.9874 134.313C98.206 138.134 98.1888 141.464 98.1272 144.411C98.1095 145.255 98.0876 146.061 98.0675 146.835C98.0167 148.788 97.971 150.536 97.9976 152.182C98.1627 162.393 97.9491 168.282 97.6277 171.983C97.3805 174.829 97.0624 176.419 96.8326 177.566C96.7632 177.913 96.7009 178.219 96.652 178.507C96.2167 181.077 96.021 183.437 95.7856 186.276C95.7334 186.906 95.6788 187.561 95.6196 188.246C95.4216 190.536 95.4558 192.243 95.5395 193.581C95.5761 194.167 95.6212 194.682 95.6647 195.167C95.6657 195.176 95.6667 195.185 95.6677 195.194C95.6737 195.262 95.6792 195.329 95.6851 195.396C95.6896 195.446 95.6953 195.497 95.6997 195.547C95.7056 195.567 95.7094 195.584 95.7128 195.598C95.7155 195.608 95.7174 195.616 95.7186 195.622C95.7191 195.623 95.7196 195.624 95.7201 195.625C95.7427 195.72 95.7517 195.802 95.7536 195.819C95.7569 195.848 95.7584 195.874 95.7594 195.887C95.7648 195.958 95.768 196.048 95.7696 196.108C95.7738 196.263 95.7788 196.532 95.7841 196.948C95.8012 197.31 95.8302 197.657 95.8672 198.092C95.8696 198.119 95.872 198.147 95.8744 198.174C95.9105 198.598 95.9519 199.095 95.9924 199.717C96.0293 200.284 95.7967 200.805 95.4725 200.881C95.1483 200.956 94.8557 200.559 94.8187 199.992C94.7805 199.405 94.7412 198.941 94.7051 198.516C94.7027 198.489 94.7002 198.463 94.6978 198.436C94.6602 197.993 94.6251 197.574 94.6046 197.123C94.5978 196.972 94.5925 196.816 94.5886 196.67C94.574 196.408 94.5489 196.11 94.5173 195.753C94.5109 195.681 94.5051 195.607 94.4983 195.532C94.4548 195.047 94.4042 194.482 94.3643 193.846C94.2712 192.355 94.2362 190.466 94.4517 187.974C94.5082 187.32 94.5607 186.687 94.6119 186.068C94.8478 183.218 95.057 180.683 95.5191 177.954C95.5825 177.58 95.655 177.221 95.7317 176.837C95.9592 175.699 96.2313 174.341 96.4598 171.709C96.7659 168.184 96.9807 162.435 96.8166 152.282C96.7887 150.554 96.8377 148.69 96.8894 146.703C96.9091 145.945 96.9282 145.168 96.9447 144.375C97.0054 141.474 97.0218 138.249 96.8108 134.56C96.6 130.876 96.3319 128.208 96.0848 126L96.3042 121.703L99.4939 120.04C99.8856 119.746 100.259 119.465 100.618 119.193C100.687 119.141 100.756 119.089 100.824 119.036C100.91 118.972 100.995 118.908 101.079 118.845C104.022 116.627 108.822 113.707 112.671 112.176C115.087 111.215 117.028 110.31 119.486 109.14C120.695 108.565 121.914 107.826 123.785 106.691C124.31 106.372 124.888 106.023 125.53 105.637C128.412 103.905 132.466 101.537 138.824 98.1991C140.482 97.3289 141.947 96.5018 143.317 95.7288C143.742 95.4887 144.16 95.2534 144.569 95.0241C146.276 94.0689 147.879 93.2052 149.464 92.5537C150.767 92.0182 153.601 90.7462 156.651 89.1705C159.724 87.5835 162.898 85.7494 164.964 84.0934C165.178 83.9212 165.395 83.7483 165.612 83.5752C167.477 82.0848 169.379 80.5654 170.759 79.0861C173.537 75.3951 178.388 71.8785 183.679 68.6537L197.167 61.5051L196.523 76C196.624 82.4327 196.212 89.1154 196.101 94.4074C196.098 94.5438 196.095 94.6803 196.092 94.8167C195.841 106.808 195.873 115.523 195.884 118.493C195.885 118.632 195.885 118.758 195.886 118.871C195.886 118.972 195.887 119.064 195.887 119.144C195.89 120.354 195.932 121.425 195.976 122.547C195.978 122.608 195.981 122.669 195.983 122.731C196.029 123.916 196.075 125.16 196.071 126.631C196.056 132.099 196.11 136.556 196.167 140.413C196.177 141.127 196.187 141.821 196.197 142.498C196.197 142.5 196.197 142.502 196.197 142.504C196.243 145.474 196.284 148.109 196.285 150.61C196.285 155.17 196.36 158.25 196.441 160.646C196.466 161.398 196.492 162.09 196.516 162.743C196.57 164.156 196.616 165.39 196.633 166.663C196.663 169.056 196.745 171.259 196.824 173.429C196.83 173.62 196.837 173.81 196.844 174L196.56 179.547L192.417 181.662C192.414 181.663 192.412 181.665 192.409 181.666C190.414 182.915 188.435 184.146 186.303 185.378C185.808 185.664 185.265 185.671 185.091 185.394C184.919 185.117 185.18 184.661 185.675 184.375C187.746 183.179 189.677 181.978 191.671 180.73C191.722 180.698 191.773 180.666 191.824 180.634L195.412 178.803L195.658 174C195.653 173.866 195.647 173.731 195.643 173.596C195.564 171.432 195.483 169.189 195.452 166.751C195.436 165.524 195.392 164.358 195.34 162.973C195.315 162.312 195.288 161.601 195.261 160.809C195.179 158.377 195.103 155.256 195.102 150.652C195.102 148.181 195.062 145.58 195.016 142.611C195.006 141.93 194.995 141.23 194.984 140.507C194.927 136.64 194.873 132.16 194.888 126.662C194.892 125.273 194.85 124.093 194.804 122.913C194.801 122.847 194.799 122.78 194.796 122.714C194.753 121.602 194.708 120.472 194.705 119.194C194.704 119.023 194.704 118.805 194.703 118.542C194.692 115.567 194.659 106.817 194.912 94.7823C194.912 94.745 194.913 94.7076 194.914 94.6703C195.083 86.6062 195.179 82.0567 194.887 78.6312C194.805 77.6731 194.745 76.8008 194.7 76L195.206 64.6052L184.603 70.2249C183.387 71.0351 182.349 71.6812 181.436 72.2397C181.166 72.4046 180.911 72.5608 180.667 72.7089C179.613 73.349 178.781 73.855 177.983 74.4192C175.571 76.1259 173.956 77.5464 172.138 79.4947C170.597 81.1464 168.502 82.8192 166.667 84.2843C166.664 84.2865 166.661 84.2887 166.659 84.2909C166.441 84.4647 166.226 84.6357 166.017 84.8033ZM96.7773 207.921C96.7675 208.492 96.4959 208.95 96.17 208.945C95.8439 208.939 95.5867 208.471 95.5963 207.9C95.6196 206.538 95.6429 205.176 95.6662 203.814C95.676 203.243 95.9476 202.785 96.2734 202.79C96.5996 202.796 96.8567 203.264 96.8472 203.835C96.8239 205.197 96.8006 206.559 96.7773 207.921ZM171.053 88.6616C170.606 89.0013 170.022 89.1048 169.751 88.8936C169.48 88.6822 169.624 88.2357 170.07 87.8963C170.307 87.7168 170.692 87.4167 171.211 87.0126C173.835 84.968 179.88 80.2578 187.403 74.9846L189.267 73.9965L189.178 76C189.488 79.8752 189.75 84.0294 189.902 88.2549C189.945 89.4518 189.988 90.5239 190.029 91.5455C190.204 95.9151 191.043 99.4229 191.009 107.78C190.919 129.865 190.293 151.938 190.096 174L190.028 175.314L189.047 175.815C177.687 182.229 166.407 188.77 155.303 195.612C146.673 200.931 137.944 206.014 129.148 211.062C121.817 215.269 108.092 222.482 104.902 224.248C104.402 224.526 103.869 224.518 103.711 224.233C103.553 223.947 103.831 223.492 104.331 223.215C107.498 221.46 121.178 214.272 128.481 210.081C137.26 205.043 145.972 199.971 154.585 194.663C165.724 187.799 176.951 181.06 188.233 174.404L188.452 174.293L188.467 174C188.244 151.918 188.305 129.817 188.395 107.734C188.429 99.4578 189.025 96.089 188.851 91.7352C188.81 90.7112 188.766 89.6331 188.723 88.4252C188.568 84.1343 188.299 79.9194 187.982 76L188.009 76.0158C180.72 81.1366 174.862 85.6997 172.239 87.7422C171.704 88.1589 171.302 88.4718 171.053 88.6616ZM147.889 101.714C142.434 105.027 134.535 109.489 127.631 113.388C124.264 115.289 121.133 117.056 118.639 118.491C114.775 120.715 112.212 121.895 109.671 123.064C109.644 123.076 109.617 123.089 109.589 123.102C107.651 123.994 105.712 124.889 103.157 126.267L103.31 126C103.276 126.899 103.253 127.873 103.243 128.944C103.199 133.509 103.391 139.826 103.585 146.197C103.585 146.202 103.585 146.207 103.585 146.212C103.778 152.55 104.571 158.978 104.526 163.624C104.367 179.813 103.555 189.795 102.918 194.842C101.804 203.671 103.054 213.684 101.644 222.703C101.332 223.698 100.433 222.02 100.692 220.187C100.699 220.12 100.706 220.054 100.713 219.988C100.781 219.357 100.836 218.805 100.881 218.028C100.917 216.902 100.92 216.064 100.922 215.299C100.926 213.293 101.141 199.362 101.763 194.433C102.368 189.643 101.752 179.87 101.912 163.578C101.957 159.018 102.598 152.718 102.404 146.347C102.404 146.329 102.403 146.312 102.403 146.294C102.21 139.969 102.016 133.591 102.06 128.95C102.071 127.881 102.094 126.904 102.126 126L102.154 125.457L102.557 125.247C105.254 123.789 107.29 122.85 109.276 121.936C109.301 121.925 109.326 121.913 109.352 121.902C111.869 120.743 114.314 119.618 118.035 117.476C120.584 116.01 123.75 114.221 127.139 112.307C134.013 108.425 141.804 104.027 147.212 100.743C147.7 100.446 148.248 100.424 148.435 100.692C148.622 100.961 148.377 101.418 147.889 101.714ZM151.508 108.126C137.489 117.813 122.627 126.247 107.54 133.719L111.955 126C111.889 126.924 111.819 127.848 111.747 128.77C111.703 133.385 111.611 139.825 111.518 146.257C111.517 146.33 111.516 146.402 111.514 146.475C111.422 152.837 111.332 159.171 111.287 163.718C111.128 179.907 110.915 189.926 110.278 194.973C109.684 199.679 109.682 200.986 109.678 202.923C109.677 202.975 109.677 203.028 109.676 203.081C109.677 203.084 109.678 203.088 109.679 203.091C109.694 203.158 109.703 203.214 109.707 203.242C109.715 203.301 109.717 203.348 109.719 203.366C109.721 203.408 109.721 203.442 109.721 203.454C109.722 203.505 109.722 203.562 109.721 203.599C109.716 203.944 109.68 205.024 109.631 205.88C109.581 206.757 109.517 207.382 109.446 208.042C109.439 208.108 109.432 208.175 109.424 208.242C109.36 208.836 109.29 209.482 109.215 210.413C109.168 210.981 108.869 211.384 108.546 211.314C108.224 211.244 107.999 210.728 108.045 210.161C108.125 209.181 108.199 208.493 108.264 207.897C108.271 207.83 108.278 207.764 108.286 207.698C108.353 207.067 108.408 206.514 108.453 205.737C108.49 204.611 108.492 203.774 108.494 203.009C108.499 201.004 108.502 199.494 109.124 194.566C109.729 189.776 109.946 180.017 110.106 163.724C110.151 159.168 110.242 152.827 110.333 146.47C110.334 146.396 110.335 146.321 110.336 146.246C110.429 139.811 110.522 133.381 110.566 128.776C110.575 127.85 110.582 126.925 110.587 126L106.847 132.539C121.535 124.008 135.674 115.123 150.83 107.155C153.667 105.432 156.272 103.878 158.686 102.439C165.789 98.2033 171.241 94.9521 176.092 91.2658C177.156 90.4576 180.085 88.5795 184.332 85.8885C185.576 85.0999 186.942 84.2368 188.419 83.3035C189.32 82.7337 190.263 82.1377 191.245 81.5164L181.6 76C181.713 79.5027 181.843 83.4304 181.998 87.7202C182.041 88.917 182.084 89.9892 182.125 91.0108C182.299 95.3805 182.438 98.8295 182.404 107.187C182.362 117.471 182.069 134.701 181.844 143.915C181.731 148.531 181.626 151.136 181.539 152.979C181.515 153.492 181.492 153.944 181.471 154.358C181.416 155.44 181.375 156.28 181.347 157.381C181.194 163.428 181.238 168.092 181.395 174L184.701 168.278C183.133 169.239 181.466 170.269 179.63 171.406C179.145 171.707 178.589 171.738 178.39 171.478C178.19 171.217 178.421 170.761 178.905 170.461C180.789 169.294 182.499 168.238 184.11 167.251L180.21 174C180.055 168.121 180.012 163.414 180.166 157.33C180.195 156.181 180.24 155.281 180.296 154.18C180.316 153.772 180.338 153.336 180.361 152.849C180.447 151.037 180.55 148.459 180.663 143.868C180.887 134.669 181.18 117.465 181.222 107.213C181.256 98.9366 181.121 95.5544 180.946 91.2005C180.906 90.1768 180.862 89.0994 180.818 87.892C180.661 83.5343 180.529 79.5459 180.414 76L191.846 82.5384C190.909 83.1314 190.008 83.7011 189.145 84.2464C187.671 85.1786 186.308 86.0399 185.068 86.8254C180.736 89.5707 177.985 91.3388 177.074 92.0312C172.053 95.8466 166.364 99.2387 159.195 103.513C156.807 104.937 154.254 106.458 151.508 108.126ZM151.101 187.548C151.587 187.249 152.141 187.22 152.339 187.482C152.536 187.744 152.303 188.199 151.818 188.498C149.253 190.079 147.413 191.223 145.975 192.118C143.314 193.774 142.028 194.575 140.059 195.7C134.977 198.603 130.074 201.416 125.664 203.947C118.333 208.154 112.358 211.582 109.169 213.349C108.669 213.626 108.135 213.619 107.977 213.334C107.82 213.048 108.098 212.593 108.598 212.316C111.764 210.561 117.694 207.159 124.998 202.967C129.413 200.434 134.331 197.61 139.446 194.689C141.355 193.598 142.57 192.843 145.172 191.223C146.608 190.329 148.468 189.171 151.101 187.548Z" fill="white" fill-opacity="0.5"/>
<defs>
<linearGradient id="paint0_linear_45_2" x1="59.5" y1="76" x2="59.5" y2="223" gradientUnits="userSpaceOnUse">
<stop stop-color="white" stop-opacity="0.1"/>
<stop offset="1" stop-color="white" stop-opacity="0"/>
</linearGradient>
<linearGradient id="paint1_linear_45_2" x1="102.75" y1="26" x2="102.75" y2="125.5" gradientUnits="userSpaceOnUse">
<stop stop-color="white" stop-opacity="0.1"/>
<stop offset="1" stop-color="white" stop-opacity="0"/>
</linearGradient>
<linearGradient id="paint2_linear_45_2" x1="145.5" y1="76" x2="145.5" y2="223" gradientUnits="userSpaceOnUse">
<stop stop-color="white" stop-opacity="0.1"/>
<stop offset="1" stop-color="white" stop-opacity="0"/>
</linearGradient>
</defs>
</svg>
