<svg viewBox="0 0 276 276" fill="none" xmlns="http://www.w3.org/2000/svg">
<g clip-path="url(#clip0_65_5)">
<mask id="path-1-inside-1_65_5" fill="white">
<path d="M205.445 54.4831H220.373C220.548 54.4831 220.722 54.4483 220.884 54.3806C221.047 54.313 221.194 54.2138 221.319 54.0888C221.443 53.9638 221.541 53.8154 221.609 53.6521C221.676 53.4888 221.71 53.3138 221.71 53.137V39.8178C221.71 39.6411 221.676 39.466 221.609 39.3027C221.541 39.1394 221.443 38.991 221.319 38.866C221.194 38.741 221.047 38.6418 220.884 38.5742C220.722 38.5066 220.548 38.4717 220.373 38.4717H205.445C205.108 38.4717 204.786 38.6061 204.548 38.8452C204.311 39.0844 204.177 39.4088 204.177 39.747V53.2078C204.177 53.9163 204.74 54.4831 205.445 54.4831ZM184.672 16.0133H199.6C199.943 15.9952 200.265 15.8454 200.501 15.5949C200.737 15.3444 200.868 15.0123 200.868 14.6672V1.27721C200.851 0.94453 200.712 0.630005 200.478 0.394455C200.243 0.158904 199.931 0.0190633 199.6 0.00196967H184.672C184.5 -0.00767494 184.328 0.0181715 184.166 0.0779259C184.004 0.13768 183.855 0.230083 183.73 0.349475C183.605 0.468867 183.505 0.612734 183.437 0.772259C183.369 0.931785 183.334 1.10361 183.334 1.27721V14.7381C183.334 15.4466 183.968 16.0133 184.672 16.0133ZM184.672 35.2128H199.6C199.931 35.1957 200.243 35.0559 200.478 34.8203C200.712 34.5848 200.851 34.2702 200.868 33.9375V20.5475C200.851 20.2148 200.712 19.9003 200.478 19.6648C200.243 19.4292 199.931 19.2894 199.6 19.2723H184.672C184.5 19.2626 184.328 19.2885 184.166 19.3482C184.004 19.408 183.855 19.5004 183.73 19.6198C183.605 19.7392 183.505 19.883 183.437 20.0426C183.369 20.2021 183.334 20.3739 183.334 20.5475V33.9375C183.334 34.646 183.968 35.2128 184.672 35.2128ZM164.041 35.2128H178.969C179.299 35.1957 179.612 35.0559 179.846 34.8203C180.08 34.5848 180.219 34.2702 180.236 33.9375V20.5475C180.236 20.2093 180.103 19.8849 179.865 19.6458C179.627 19.4066 179.305 19.2723 178.969 19.2723H164.041C163.705 19.2723 163.382 19.4066 163.145 19.6458C162.907 19.8849 162.773 20.2093 162.773 20.5475V33.9375C162.773 34.646 163.337 35.2128 164.041 35.2128ZM143.198 35.2128H158.056C158.399 35.2133 158.729 35.0812 158.978 34.8439C159.227 34.6066 159.375 34.2821 159.394 33.9375V20.5475C159.394 20.3739 159.359 20.2021 159.291 20.0426C159.223 19.883 159.123 19.7392 158.998 19.6198C158.872 19.5004 158.724 19.408 158.562 19.3482C158.4 19.2885 158.228 19.2626 158.056 19.2723H143.198C142.855 19.2718 142.525 19.4039 142.276 19.6412C142.027 19.8785 141.878 20.2029 141.86 20.5475V33.9375C141.86 34.646 142.424 35.2128 143.198 35.2128ZM184.672 54.4831H199.6C199.943 54.4649 200.265 54.3151 200.501 54.0646C200.737 53.8141 200.868 53.4821 200.868 53.137V39.8178C200.868 39.4728 200.737 39.1407 200.501 38.8902C200.265 38.6397 199.943 38.4899 199.6 38.4717H184.672C184.5 38.4621 184.328 38.4879 184.166 38.5477C184.004 38.6074 183.855 38.6999 183.73 38.8192C183.605 38.9386 183.505 39.0825 183.437 39.242C183.369 39.4016 183.334 39.5734 183.334 39.747V53.2078C183.334 53.9163 183.968 54.4831 184.672 54.4831ZM164.041 54.4831H178.969C179.141 54.4834 179.312 54.4482 179.471 54.3797C179.629 54.3112 179.772 54.2109 179.891 54.0849C180.009 53.9589 180.101 53.8098 180.161 53.6468C180.22 53.4838 180.246 53.3103 180.236 53.137V39.8178C180.246 39.6445 180.22 39.471 180.161 39.308C180.101 39.145 180.009 38.996 179.891 38.8699C179.772 38.7439 179.629 38.6436 179.471 38.5751C179.312 38.5066 179.141 38.4715 178.969 38.4717H164.041C163.705 38.4717 163.382 38.6061 163.145 38.8452C162.907 39.0844 162.773 39.4088 162.773 39.747V53.2078C162.773 53.9163 163.337 54.4831 164.041 54.4831ZM143.198 54.4831H158.056C158.234 54.4934 158.413 54.4656 158.579 54.4016C158.746 54.3376 158.898 54.2388 159.024 54.1117C159.151 53.9846 159.249 53.832 159.313 53.664C159.376 53.4961 159.404 53.3165 159.394 53.137V39.8178C159.403 39.6445 159.377 39.471 159.318 39.308C159.259 39.145 159.167 38.996 159.048 38.8699C158.929 38.7439 158.786 38.6436 158.628 38.5751C158.469 38.5066 158.299 38.4715 158.126 38.4717H143.198C142.843 38.4717 142.503 38.6136 142.252 38.866C142.001 39.1184 141.86 39.4608 141.86 39.8178V53.137C141.86 53.8455 142.424 54.4831 143.198 54.4831ZM122.637 54.4831H137.565C137.738 54.4834 137.908 54.4482 138.067 54.3797C138.225 54.3112 138.368 54.2109 138.487 54.0849C138.606 53.9589 138.698 53.8098 138.757 53.6468C138.816 53.4838 138.842 53.3103 138.832 53.137V39.8178C138.842 39.6445 138.816 39.471 138.757 39.308C138.698 39.145 138.606 38.996 138.487 38.8699C138.368 38.7439 138.225 38.6436 138.067 38.5751C137.908 38.5066 137.738 38.4715 137.565 38.4717H122.637C122.465 38.4621 122.292 38.4879 122.13 38.5477C121.968 38.6074 121.82 38.6999 121.695 38.8192C121.57 38.9386 121.47 39.0825 121.402 39.242C121.334 39.4016 121.299 39.5734 121.299 39.747V53.2078C121.299 53.9163 121.863 54.4831 122.637 54.4831ZM274.31 46.0523C273.888 45.6981 269.592 42.4392 260.579 42.4392C258.185 42.4392 255.791 42.6517 253.467 43.0768C252.843 39.3529 251.44 35.8046 249.353 32.666C247.265 29.5275 244.539 26.8701 241.356 24.8692L238.962 23.4522L237.342 25.7902C235.374 28.9023 233.946 32.328 233.118 35.9213C231.428 42.7934 232.413 49.2404 235.934 54.7665C232.055 56.5477 227.871 57.5581 223.612 57.742H112.357C111.657 57.7327 110.963 57.8632 110.314 58.126C109.665 58.3888 109.075 58.7787 108.577 59.2731C108.079 59.7674 107.684 60.3563 107.414 61.0057C107.144 61.655 107.005 62.3518 107.005 63.0555C106.895 72.8653 108.565 82.613 111.934 91.8193C114.951 100.882 120.902 108.665 128.834 113.923C137.143 119.095 150.662 122 166.012 122C172.913 122 179.814 121.433 186.644 120.158C196.097 118.383 205.188 115.031 213.542 110.239C220.436 106.237 226.642 101.142 231.92 95.1491C240.722 85.0889 246.003 73.8951 249.876 63.9766H251.496C261.143 63.9766 267.057 60.08 270.367 56.8919C272.479 54.7665 274.24 52.216 275.296 49.3821L276 47.3984L274.31 46.0523Z"/>
</mask>
<path d="M205.445 54.4831H220.373C220.548 54.4831 220.722 54.4483 220.884 54.3806C221.047 54.313 221.194 54.2138 221.319 54.0888C221.443 53.9638 221.541 53.8154 221.609 53.6521C221.676 53.4888 221.71 53.3138 221.71 53.137V39.8178C221.71 39.6411 221.676 39.466 221.609 39.3027C221.541 39.1394 221.443 38.991 221.319 38.866C221.194 38.741 221.047 38.6418 220.884 38.5742C220.722 38.5066 220.548 38.4717 220.373 38.4717H205.445C205.108 38.4717 204.786 38.6061 204.548 38.8452C204.311 39.0844 204.177 39.4088 204.177 39.747V53.2078C204.177 53.9163 204.74 54.4831 205.445 54.4831ZM184.672 16.0133H199.6C199.943 15.9952 200.265 15.8454 200.501 15.5949C200.737 15.3444 200.868 15.0123 200.868 14.6672V1.27721C200.851 0.94453 200.712 0.630005 200.478 0.394455C200.243 0.158904 199.931 0.0190633 199.6 0.00196967H184.672C184.5 -0.00767494 184.328 0.0181715 184.166 0.0779259C184.004 0.13768 183.855 0.230083 183.73 0.349475C183.605 0.468867 183.505 0.612734 183.437 0.772259C183.369 0.931785 183.334 1.10361 183.334 1.27721V14.7381C183.334 15.4466 183.968 16.0133 184.672 16.0133ZM184.672 35.2128H199.6C199.931 35.1957 200.243 35.0559 200.478 34.8203C200.712 34.5848 200.851 34.2702 200.868 33.9375V20.5475C200.851 20.2148 200.712 19.9003 200.478 19.6648C200.243 19.4292 199.931 19.2894 199.6 19.2723H184.672C184.5 19.2626 184.328 19.2885 184.166 19.3482C184.004 19.408 183.855 19.5004 183.73 19.6198C183.605 19.7392 183.505 19.883 183.437 20.0426C183.369 20.2021 183.334 20.3739 183.334 20.5475V33.9375C183.334 34.646 183.968 35.2128 184.672 35.2128ZM164.041 35.2128H178.969C179.299 35.1957 179.612 35.0559 179.846 34.8203C180.08 34.5848 180.219 34.2702 180.236 33.9375V20.5475C180.236 20.2093 180.103 19.8849 179.865 19.6458C179.627 19.4066 179.305 19.2723 178.969 19.2723H164.041C163.705 19.2723 163.382 19.4066 163.145 19.6458C162.907 19.8849 162.773 20.2093 162.773 20.5475V33.9375C162.773 34.646 163.337 35.2128 164.041 35.2128ZM143.198 35.2128H158.056C158.399 35.2133 158.729 35.0812 158.978 34.8439C159.227 34.6066 159.375 34.2821 159.394 33.9375V20.5475C159.394 20.3739 159.359 20.2021 159.291 20.0426C159.223 19.883 159.123 19.7392 158.998 19.6198C158.872 19.5004 158.724 19.408 158.562 19.3482C158.4 19.2885 158.228 19.2626 158.056 19.2723H143.198C142.855 19.2718 142.525 19.4039 142.276 19.6412C142.027 19.8785 141.878 20.2029 141.86 20.5475V33.9375C141.86 34.646 142.424 35.2128 143.198 35.2128ZM184.672 54.4831H199.6C199.943 54.4649 200.265 54.3151 200.501 54.0646C200.737 53.8141 200.868 53.4821 200.868 53.137V39.8178C200.868 39.4728 200.737 39.1407 200.501 38.8902C200.265 38.6397 199.943 38.4899 199.6 38.4717H184.672C184.5 38.4621 184.328 38.4879 184.166 38.5477C184.004 38.6074 183.855 38.6999 183.73 38.8192C183.605 38.9386 183.505 39.0825 183.437 39.242C183.369 39.4016 183.334 39.5734 183.334 39.747V53.2078C183.334 53.9163 183.968 54.4831 184.672 54.4831ZM164.041 54.4831H178.969C179.141 54.4834 179.312 54.4482 179.471 54.3797C179.629 54.3112 179.772 54.2109 179.891 54.0849C180.009 53.9589 180.101 53.8098 180.161 53.6468C180.22 53.4838 180.246 53.3103 180.236 53.137V39.8178C180.246 39.6445 180.22 39.471 180.161 39.308C180.101 39.145 180.009 38.996 179.891 38.8699C179.772 38.7439 179.629 38.6436 179.471 38.5751C179.312 38.5066 179.141 38.4715 178.969 38.4717H164.041C163.705 38.4717 163.382 38.6061 163.145 38.8452C162.907 39.0844 162.773 39.4088 162.773 39.747V53.2078C162.773 53.9163 163.337 54.4831 164.041 54.4831ZM143.198 54.4831H158.056C158.234 54.4934 158.413 54.4656 158.579 54.4016C158.746 54.3376 158.898 54.2388 159.024 54.1117C159.151 53.9846 159.249 53.832 159.313 53.664C159.376 53.4961 159.404 53.3165 159.394 53.137V39.8178C159.403 39.6445 159.377 39.471 159.318 39.308C159.259 39.145 159.167 38.996 159.048 38.8699C158.929 38.7439 158.786 38.6436 158.628 38.5751C158.469 38.5066 158.299 38.4715 158.126 38.4717H143.198C142.843 38.4717 142.503 38.6136 142.252 38.866C142.001 39.1184 141.86 39.4608 141.86 39.8178V53.137C141.86 53.8455 142.424 54.4831 143.198 54.4831ZM122.637 54.4831H137.565C137.738 54.4834 137.908 54.4482 138.067 54.3797C138.225 54.3112 138.368 54.2109 138.487 54.0849C138.606 53.9589 138.698 53.8098 138.757 53.6468C138.816 53.4838 138.842 53.3103 138.832 53.137V39.8178C138.842 39.6445 138.816 39.471 138.757 39.308C138.698 39.145 138.606 38.996 138.487 38.8699C138.368 38.7439 138.225 38.6436 138.067 38.5751C137.908 38.5066 137.738 38.4715 137.565 38.4717H122.637C122.465 38.4621 122.292 38.4879 122.13 38.5477C121.968 38.6074 121.82 38.6999 121.695 38.8192C121.57 38.9386 121.47 39.0825 121.402 39.242C121.334 39.4016 121.299 39.5734 121.299 39.747V53.2078C121.299 53.9163 121.863 54.4831 122.637 54.4831ZM274.31 46.0523C273.888 45.6981 269.592 42.4392 260.579 42.4392C258.185 42.4392 255.791 42.6517 253.467 43.0768C252.843 39.3529 251.44 35.8046 249.353 32.666C247.265 29.5275 244.539 26.8701 241.356 24.8692L238.962 23.4522L237.342 25.7902C235.374 28.9023 233.946 32.328 233.118 35.9213C231.428 42.7934 232.413 49.2404 235.934 54.7665C232.055 56.5477 227.871 57.5581 223.612 57.742H112.357C111.657 57.7327 110.963 57.8632 110.314 58.126C109.665 58.3888 109.075 58.7787 108.577 59.2731C108.079 59.7674 107.684 60.3563 107.414 61.0057C107.144 61.655 107.005 62.3518 107.005 63.0555C106.895 72.8653 108.565 82.613 111.934 91.8193C114.951 100.882 120.902 108.665 128.834 113.923C137.143 119.095 150.662 122 166.012 122C172.913 122 179.814 121.433 186.644 120.158C196.097 118.383 205.188 115.031 213.542 110.239C220.436 106.237 226.642 101.142 231.92 95.1491C240.722 85.0889 246.003 73.8951 249.876 63.9766H251.496C261.143 63.9766 267.057 60.08 270.367 56.8919C272.479 54.7665 274.24 52.216 275.296 49.3821L276 47.3984L274.31 46.0523Z" stroke="white" stroke-width="2" mask="url(#path-1-inside-1_65_5)"/>
<path d="M26.2793 232.061L1.5 207.281V138.286L26.2793 113.218V232.061Z" stroke="white"/>
<path d="M75.5378 232.066L100.293 207.279L100.117 138.522L75.0203 113.22L75.5378 232.066Z" stroke="white"/>
<path d="M93.1663 214.578L75.1301 232.647L8.62524 131.249L26.6975 112.958L93.1663 214.578Z" stroke="white"/>
<path d="M215.379 155.498C217.312 155.498 219.167 156.266 220.534 157.632L273.364 210.466C274.732 211.835 275.5 213.686 275.5 215.621C275.5 217.556 274.731 219.412 273.364 220.78L220.781 273.363C219.413 274.731 217.558 275.5 215.623 275.5C213.689 275.5 211.833 274.731 210.465 273.363L157.637 220.535C156.269 219.167 155.5 217.311 155.5 215.377C155.5 213.443 156.269 211.588 157.637 210.22L193.502 174.349L206.644 187.485C206.227 188.584 206.01 189.748 206.007 190.925C206.004 192.215 206.257 193.492 206.75 194.684C207.243 195.875 207.968 196.957 208.881 197.867C209.714 198.698 210.691 199.368 211.762 199.851V232.41C209.833 233.279 208.235 234.751 207.212 236.61C206.135 238.569 205.762 240.837 206.155 243.037C206.547 245.237 207.682 247.237 209.37 248.702C211.058 250.167 213.197 251.009 215.431 251.088C217.664 251.167 219.858 250.478 221.645 249.136C223.432 247.794 224.705 245.879 225.252 243.712C225.799 241.545 225.587 239.256 224.651 237.227C223.758 235.292 222.259 233.706 220.386 232.704V201.299L231.809 212.726C231.069 214.708 230.991 216.879 231.593 218.913C232.227 221.055 233.576 222.915 235.415 224.183C237.254 225.451 239.472 226.05 241.699 225.881C243.927 225.712 246.029 224.785 247.656 223.254C249.282 221.723 250.334 219.681 250.638 217.468C250.941 215.255 250.477 213.004 249.323 211.092C248.168 209.18 246.393 207.72 244.293 206.958C242.293 206.232 240.113 206.181 238.084 206.806L225.108 193.824C225.62 192.184 225.691 190.437 225.31 188.758C224.905 186.976 224.007 185.342 222.719 184.046C221.431 182.749 219.803 181.841 218.024 181.425C216.346 181.032 214.596 181.091 212.952 181.594L199.608 168.244L210.224 157.632C211.592 156.266 213.446 155.498 215.379 155.498Z" stroke="white"/>
</g>
<defs>
<clipPath id="clip0_65_5">
<rect width="276" height="276" fill="white"/>
</clipPath>
</defs>
</svg>
