<svg width="321" height="369" viewBox="0 0 321 369" fill="none" xmlns="http://www.w3.org/2000/svg">
<path d="M143.958 329.787C140.664 321.926 136.216 312.352 133.1 304.514C133.056 304.404 133.012 304.294 132.969 304.184C131.695 300.981 130.431 297.703 128.901 293.736C128.706 293.231 128.507 292.713 128.302 292.184C126.488 287.483 124.255 281.71 121.163 273.863C110.781 247.516 101.55 227.189 98.6781 220.866C92.9187 208.185 87.0874 194.524 79.1307 175.884C78.4031 174.179 77.6587 172.432 76.8939 170.641C76.2743 169.19 76.004 167.885 76.2899 167.724C76.5763 167.563 77.3104 168.608 77.9302 170.06C78.679 171.814 79.4088 173.523 80.1198 175.188C80.123 175.196 80.1262 175.204 80.1294 175.211C88.1363 193.968 93.8411 207.332 99.4647 219.714C102.399 226.175 111.856 247.003 122.494 274C125.619 281.93 127.879 287.767 129.704 292.497C129.904 293.015 130.098 293.52 130.287 294.011C130.292 294.022 130.296 294.034 130.3 294.045C131.841 298.037 133.051 301.178 134.27 304.244C134.296 304.309 134.322 304.374 134.348 304.439C137.5 312.365 141.872 321.753 145.067 329.377C145.677 330.832 145.923 332.105 145.617 332.218C145.31 332.33 144.568 331.241 143.958 329.787ZM241.079 13.1591C249.304 12.6601 260.251 12.6195 269.919 12.7341C279.654 12.8495 288.466 13.1273 292.613 13.3081C294.109 13.3733 295.665 13.4188 297.304 13.45C299.284 13.5096 301.343 14.0993 303.174 15.5319C303.834 16.0506 304.456 16.6788 304.994 17.4088C306.781 19.79 307.551 23.3562 306.07 26.6862C306.057 26.7155 306.045 26.7448 306.032 26.7741C298.325 44.7841 293.494 56.6046 290.083 65.0622C289.381 66.8019 288.73 68.4215 288.122 69.9373C288.121 69.9399 288.12 69.9424 288.119 69.945C285.821 75.6665 284.106 79.9354 282.385 83.8028C279.322 90.6864 276.806 96.3014 273.622 103.018C269.231 112.28 263.794 125.807 260.579 134.741C260.403 135.231 260.223 135.733 260.041 136.24C257.712 142.718 254.844 150.693 250.297 162.551C246.52 172.404 243.035 180.912 239.908 188.425C239.012 190.579 238.152 192.631 237.327 194.602C235.246 199.577 233.382 204.03 231.692 208.251C221.207 234.424 214.875 249.402 210.722 258.745C207.528 265.931 205.577 269.877 204.169 272.724C203.744 273.584 203.367 274.343 203.022 275.062C199.941 281.47 197.301 287.431 194.126 294.601C193.422 296.193 192.688 297.848 191.92 299.577C189.351 305.359 187.604 309.737 186.288 313.191C185.712 314.702 185.217 316.036 184.751 317.295C184.743 317.318 184.734 317.341 184.726 317.365C184.661 317.54 184.596 317.714 184.532 317.887C184.484 318.017 184.437 318.148 184.388 318.278C184.373 318.331 184.358 318.378 184.347 318.413C184.339 318.441 184.332 318.462 184.328 318.476C184.327 318.479 184.327 318.482 184.326 318.484C184.248 318.737 184.171 318.95 184.155 318.994C184.127 319.07 184.102 319.137 184.089 319.172C184.021 319.353 183.929 319.586 183.868 319.741C183.711 320.138 183.435 320.828 183.007 321.893C182.646 322.825 182.311 323.724 181.892 324.85C181.866 324.921 181.839 324.992 181.813 325.063C181.405 326.161 180.926 327.446 180.315 329.053C179.759 330.516 179.001 331.761 178.621 331.833C178.242 331.904 178.386 330.776 178.942 329.313C179.517 327.799 179.965 326.595 180.374 325.497C180.399 325.427 180.425 325.357 180.451 325.287C180.877 324.142 181.281 323.057 181.732 321.895C181.884 321.506 182.041 321.105 182.189 320.731C182.449 320.056 182.736 319.284 183.078 318.359C183.147 318.174 183.219 317.982 183.291 317.787C183.756 316.53 184.297 315.067 184.924 313.424C186.39 309.577 188.326 304.734 191.122 298.441C191.855 296.791 192.564 295.191 193.256 293.628C196.443 286.429 199.278 280.024 202.548 273.221C202.997 272.288 203.438 271.397 203.909 270.444C205.305 267.62 206.972 264.249 209.925 257.606C213.882 248.705 220.069 234.086 230.494 208.061C232.268 203.631 234.256 198.882 236.373 193.822C237.181 191.89 238.008 189.91 238.85 187.888C241.929 180.491 245.303 172.251 248.951 162.738C253.396 151.144 256.186 143.386 258.505 136.938C258.585 136.715 258.665 136.492 258.745 136.269C258.844 135.992 258.943 135.718 259.041 135.446C262.466 125.925 268.241 111.529 273.092 101.296C276.136 94.875 278.546 89.5013 281.592 82.6555C283.089 79.2888 284.556 75.637 286.809 70.0304C287.441 68.4565 288.137 66.7265 288.911 64.8077C292.368 56.2386 297.243 44.3089 304.973 26.2393C304.996 26.1879 305.018 26.1365 305.039 26.085C306.248 23.2265 305.617 20.2485 304.061 18.1354C303.581 17.4793 303.017 16.9059 302.406 16.4315C300.901 15.266 299.144 14.696 297.314 14.639C295.263 14.6044 293.273 14.5502 291.34 14.4659C287.488 14.298 278.96 14.0265 269.491 13.9142C259.955 13.8011 249.832 13.8543 242.602 14.2929C241.85 14.3385 241.091 14.3837 240.334 14.4292C233.812 14.8209 227.161 15.2201 221.809 15.8384C197.83 19.6457 154.333 18.6207 125.645 18.6345C125.268 18.6346 124.892 18.6348 124.515 18.6349C91.4026 18.6511 67.3397 18.8773 59.1377 18.9544C58.7551 18.958 58.4071 18.9614 58.0942 18.9643C57.8149 18.9669 57.5622 18.9699 57.3395 18.9719C53.9982 19.0019 51.0422 19.0677 47.9449 19.1365C47.7758 19.1403 47.6067 19.1441 47.4376 19.1479C44.1648 19.2205 40.7299 19.2934 36.6696 19.3222C31.1858 19.3612 26.0702 19.4061 21.2685 19.4545C17.5721 19.4226 15.1771 22.9844 15.4773 25.6826C15.525 26.357 15.6893 27.0057 15.974 27.6532C16.0914 27.9243 16.2082 28.1944 16.3246 28.4632C16.3268 28.4683 16.3289 28.4733 16.3311 28.4784C19.59 36.0057 22.4815 42.6829 25.1897 49.0348C30.1284 60.6176 33.5327 68.4122 36.2012 74.4663C37.0381 76.365 37.8115 78.1135 38.5418 79.7635C40.1209 83.3313 41.5002 86.4474 42.8934 89.6736C45.5136 95.7415 47.9738 101.305 50.3962 106.786C50.6121 107.275 50.8272 107.763 51.0426 108.25C53.6681 114.192 56.2631 120.078 58.9319 126.332C59.5513 127.784 59.8204 129.092 59.5332 129.25C59.2457 129.407 58.5101 128.357 57.8911 126.906C55.2988 120.831 52.7683 115.089 50.1435 109.149C49.927 108.659 49.7089 108.167 49.491 107.674C47.0746 102.207 44.5712 96.5407 41.9024 90.3606C40.5592 87.25 39.2565 84.3065 37.7086 80.8093C36.9699 79.1404 36.1744 77.3433 35.2925 75.3424C32.5834 69.1964 29.1336 61.2992 24.1473 49.6047C21.4717 43.3295 18.618 36.7373 15.3612 29.2147C15.2038 28.8511 15.0453 28.4852 14.886 28.1171C14.569 27.3942 14.3723 26.6495 14.3052 25.8771C13.882 22.581 16.7624 18.244 21.259 18.2717C26.036 18.2238 31.1236 18.1792 36.5734 18.1405C40.4097 18.1133 43.6661 18.0448 46.9249 17.9725C47.1078 17.9686 47.2906 17.9647 47.4734 17.9608C50.5436 17.8925 53.6642 17.8223 57.1938 17.7906C57.6654 17.7863 58.2676 17.7814 58.9921 17.7746C67.2063 17.6973 91.3666 17.4694 124.6 17.4532C124.703 17.4533 124.807 17.4535 124.91 17.4536C147.178 17.4427 159.741 17.4367 169.197 17.0684C176.66 16.7778 182.239 16.6738 186.818 16.6087C187.691 16.5963 188.517 16.5845 189.305 16.5741C192.708 16.529 195.397 16.4932 198.085 16.3896C206.214 16.0762 212.042 15.6233 219.091 14.8089C225.067 14.1186 232.391 13.6797 238.807 13.2954C238.817 13.2949 238.826 13.2943 238.836 13.2937C239.597 13.2482 240.347 13.2035 241.079 13.1591ZM172.496 350.327C171.892 351.784 171.162 352.855 170.866 352.719C170.57 352.581 170.82 351.286 171.424 349.828C172.864 346.355 174.304 342.881 175.744 339.408C176.349 337.951 177.078 336.88 177.374 337.016C177.67 337.154 177.421 338.449 176.816 339.907C175.376 343.38 173.936 346.854 172.496 350.327ZM234.449 7.33378C235.988 7.25522 237.523 7.4495 237.876 7.76627C238.226 8.08282 237.262 8.40271 235.724 8.4812C234.911 8.52271 233.574 8.59671 231.775 8.69656C218.817 9.41566 181.818 11.4692 142.583 12.2985C139.279 12.3683 136.319 12.4349 133.498 12.4985C121.435 12.7708 111.755 13.6882 88.6784 13.8404C66.1904 13.9887 43.706 14.0641 21.2254 14.115C13.5601 13.781 7.50036 22.7964 10.802 29.8582C36.0427 90.1202 61.2328 150.366 87.4644 210.128C98.7111 235.751 109.691 261.392 120.654 287.159C129.792 308.636 146.013 348.228 149.904 357.512C150.514 358.968 150.76 360.241 150.453 360.354C150.147 360.466 149.404 359.378 148.795 357.922C144.931 348.704 128.766 309.243 119.662 287.847C108.72 262.129 97.7631 236.54 86.5382 210.967C60.2719 151.126 34.4146 90.9723 8.72672 30.7429C4.70741 22.3147 11.8787 11.375 21.2059 11.6962C43.7355 11.5267 66.2636 11.3741 88.7852 11.2256C111.638 11.0749 120.945 11.5959 132.965 11.3247C135.792 11.261 138.769 11.1933 142.104 11.1228C180.788 10.3051 217.225 8.2847 230.338 7.55773C232.195 7.45482 233.589 7.37768 234.449 7.33378ZM308.163 11.5524C312.448 15.3522 314.811 22.6695 312.06 29.1264C306.402 42.9552 299.834 58.7887 293.876 73.15C289.785 83.011 285.981 92.1778 282.958 99.5259C278.275 110.911 275.089 117.981 271.93 124.993C271.896 125.068 271.862 125.143 271.828 125.219C268.671 132.225 265.516 139.24 260.758 150.802C255.962 162.46 249.56 178.686 243.101 195.053C243.096 195.066 243.091 195.078 243.086 195.091C236.662 211.371 230.7 228.11 225.818 239.973C208.806 281.311 197.656 306.532 191.808 319.198C185.844 332.116 180.205 346.367 174.418 360.471C170.726 371.211 153.863 370.719 150.704 361.061C150.093 358.596 151.968 362.492 155.262 365.013C155.382 365.107 155.504 365.197 155.628 365.286C156.814 366.111 157.993 366.703 159.779 367.097C162.394 367.596 164.437 367.223 166.125 366.639C167.34 366.216 171.171 364.65 173.121 359.943C178.512 346.976 187.108 326.502 191.165 317.716C196.715 305.695 206.325 280.472 223.446 238.868C228.237 227.225 235.394 211.357 241.852 194.989C241.87 194.945 241.887 194.9 241.905 194.855C248.316 178.608 254.781 162.224 259.657 150.371C264.586 138.391 267.887 131.057 271.085 123.958C271.117 123.889 271.148 123.821 271.179 123.752C274.309 116.805 277.348 110.06 281.858 99.0957C284.948 91.5858 288.795 82.3115 292.912 72.3874C298.855 58.0614 305.362 42.3776 310.966 28.6807C313.47 22.7965 311.401 16.1471 307.547 12.5967C306.367 11.4526 305.295 10.5138 305.397 10.1901C305.491 9.87411 306.847 10.3309 308.163 11.5524ZM313.621 6.58876C320.303 12.7553 322.772 23.4468 319.206 32.0373C303.369 73.1348 286.32 113.855 268.815 153.567C263.966 165.352 257.172 181.787 250.386 198.199C250.309 198.384 250.232 198.569 250.155 198.755C243.443 214.989 236.76 231.152 231.982 242.764C214.97 284.103 204.335 309.644 198.487 322.311C193.034 334.122 191.671 337.462 189.65 342.413C189.594 342.548 189.539 342.683 189.483 342.818C189.481 342.827 189.478 342.836 189.475 342.846C189.42 343.021 189.37 343.167 189.344 343.242C189.29 343.394 189.243 343.517 189.225 343.563C189.185 343.67 189.149 343.758 189.136 343.79C189.085 343.919 189.024 344.066 188.985 344.16C188.621 345.04 187.462 347.789 186.526 349.959C185.566 352.183 184.855 353.757 184.103 355.416C184.026 355.584 183.95 355.752 183.874 355.92C183.196 357.415 182.457 359.042 181.417 361.395C181.127 362.051 180.823 362.6 180.558 362.972C180.16 363.613 179.838 363.881 179.741 363.679C179.671 363.535 179.718 363.178 179.831 362.676C179.931 362.066 180.206 361.193 180.597 360.308C181.692 357.833 182.477 356.102 183.159 354.6C183.234 354.433 183.31 354.267 183.386 354.1C184.106 352.512 184.733 351.119 185.584 349.148C186.791 346.282 187.665 344.143 188.463 342.188C190.556 337.063 192.132 333.203 197.843 320.833C203.393 308.812 213.76 283.939 230.882 242.334C235.669 230.7 242.359 214.518 249.066 198.298C249.145 198.107 249.223 197.917 249.302 197.726C256.092 181.305 262.877 164.895 267.715 153.137C284.506 112.324 300.431 72.0355 317.547 31.3618C320.923 23.6382 319.066 13.7897 313.076 7.71411C308.838 3.35518 302.77 1.07413 297.205 1.18638C292.285 1.24191 287.602 1.2899 283.125 1.33569C260.288 1.56921 242.763 1.74923 226.062 2.60167C222.401 2.78855 212.801 2.99963 198.928 3.27798C194.862 3.35954 190.402 3.44666 185.582 3.54151C173.767 3.77405 159.768 4.0492 143.996 4.38256C140.692 4.45241 137.732 4.51895 134.911 4.58261C122.847 4.85478 113.324 5.07058 90.2463 5.22276C71.5908 5.34577 44.655 5.42714 21.1556 5.46282C5.70989 5.20526 -2.52913 23.0022 2.81234 33.2644C3.45538 34.8081 4.07098 36.2871 4.65568 37.693C9.54966 49.4602 12.2749 56.1191 14.1908 60.835C14.7243 62.1481 15.1915 63.3037 15.6208 64.3638C16.7425 67.1333 17.6141 69.2836 18.7808 72.0916C27.1827 92.3116 33.3217 106.359 43.4357 129.347C44.0693 130.788 44.3775 132.148 44.1244 132.385C43.8711 132.622 43.1514 131.645 42.5175 130.205C32.3887 107.182 26.1558 92.9213 17.6395 72.4258C16.4213 69.4942 15.4887 67.1913 14.3473 64.3732C13.9241 63.3283 13.4724 62.2123 12.9664 60.9669C11.0823 56.3294 8.38586 49.7402 3.51756 38.0347C2.9483 36.666 2.34972 35.2279 1.72495 33.728C-3.92722 22.8798 4.76648 4.01896 21.146 4.28085C44.6234 4.24513 71.5481 4.16371 90.1667 4.04093C113.019 3.89023 122.357 3.67999 134.378 3.40881C137.204 3.34503 140.179 3.27738 143.512 3.20689C159.306 2.87309 173.342 2.59653 185.164 2.36388C189.978 2.26914 194.427 2.18183 198.477 2.10058C212.629 1.81662 221.65 1.61434 224.787 1.45424C242.074 0.571961 260.36 0.384723 283.408 0.149466C287.82 0.104448 292.408 0.0577116 297.196 0.00395239C302.946 -0.109061 309.197 2.19937 313.621 6.58876ZM78.688 212.709C78.0553 211.267 77.7508 209.912 78.0068 209.681C78.263 209.451 78.9831 210.432 79.6159 211.874C82.9586 219.489 85.3703 224.96 87.2558 229.237C90.7457 237.153 92.4328 240.979 94.8799 246.742C101.197 261.62 107.307 275.981 112.804 288.901C121.942 310.377 129.39 327.88 133.28 337.164C133.89 338.619 134.136 339.892 133.83 340.005C133.523 340.117 132.781 339.028 132.171 337.574C128.308 328.355 120.917 310.983 111.813 289.588C106.309 276.652 100.178 262.245 93.8213 247.274C91.4479 241.684 89.856 238.072 86.4436 230.332C84.5597 226.059 82.12 220.527 78.688 212.709Z" fill="url(#paint0_linear_3_3)"/>
<defs>
<linearGradient id="paint0_linear_3_3" x1="156.072" y1="107.597" x2="162.316" y2="391.809" gradientUnits="userSpaceOnUse">
<stop stop-color="white" stop-opacity="0"/>
<stop offset="1" stop-color="#999999"/>
</linearGradient>
</defs>
</svg>
