<svg viewBox="0 0 3306 2849" fill="none" xmlns="http://www.w3.org/2000/svg">
<g clip-path="url(#clip0_1_4)">
<path d="M-401 5C-164.167 120.833 1438.5 853.9 1494.5 1135.5C1550.5 1417.1 1696.5 1631.17 1889 1628.5C2091.17 1628.5 2496.3 1677.9 2499.5 1875.5C2503.5 2122.5 3476.5 2387.5 3476.5 2307" stroke="white" stroke-opacity="0.1" stroke-width="2"/>
<path d="M-567 2035.55C-391.294 1838.99 -43.147 1167.57 243.088 1190.02C529.324 1212.46 774.957 1129.97 824.582 943.958C879.394 749.364 1036.79 372.798 1227.85 423.293C1466.68 486.41 1985.56 -378.297 1908.08 -400.122" stroke="white" stroke-opacity="0.1" stroke-width="2"/>
<path d="M-436 2007C-150.067 1926.44 440.057 1512.23 700.5 1707.5C960.943 1902.77 1342.53 2154.1 1501.5 2007C1670.57 1854.87 2095.18 1396.85 2247.74 1561.03C2438.45 1766.26 3453.2 1257.5 3392.14 1189.64" stroke="white" stroke-opacity="0.1" stroke-width="2"/>
<path d="M1912.36 3579.58C1913.77 3315.95 1973.92 2745.47 2203.21 2572.66C2432.5 2399.86 2317.72 2012.23 2231.67 1840.01C2143.82 1657.93 2012.26 1271.58 2188.84 1182.83C2409.56 1071.9 2134 -103.981 2061.5 -69" stroke="white" stroke-opacity="0.1" stroke-width="2"/>
<path d="M-436 654.665C-173.367 631.613 400.231 638.575 593.56 850.845C786.889 1063.11 1162.2 912.869 1325.69 811.212C1498.84 706.849 1871.32 540.02 1976.07 707.604C2107 917.083 3382.06 142.445 3340.5 73.4999" stroke="white" stroke-opacity="0.1" stroke-width="2"/>
</g>
<defs>
<clipPath id="clip0_1_4">
<rect width="3306" height="2849" fill="white"/>
</clipPath>
</defs>
</svg>
