<svg width="276" height="276" viewBox="0 0 276 276" fill="none" xmlns="http://www.w3.org/2000/svg">
<mask id="path-1-inside-1_1_13" fill="white">
<path d="M274.226 134.625L262.647 127.44C262.572 126.302 262.421 125.17 262.346 124.033L272.334 114.723C273.315 113.818 273.774 112.378 273.547 111.015C273.245 109.651 272.334 108.519 271.051 108.066L258.34 103.301C258.038 102.163 257.661 101.107 257.359 100.045L265.305 88.9992C266.135 87.8618 266.286 86.4279 265.758 85.1395C265.23 83.8511 264.092 82.9455 262.734 82.7191L249.262 80.5251C248.734 79.544 248.201 78.4821 247.672 77.501L253.349 65.0918C253.952 63.8034 253.801 62.3695 253.047 61.2321C252.292 60.0947 251.004 59.4154 249.564 59.4909L235.942 59.9437C235.263 59.0381 234.503 58.2025 233.824 57.2969L236.929 44.0576C237.231 42.6937 236.853 41.3353 235.867 40.3488C234.886 39.3677 233.446 38.985 232.158 39.2868L218.919 42.3918C218.088 41.6372 217.177 40.9525 216.272 40.2733L216.725 26.6512C216.8 25.2874 216.121 23.929 214.984 23.1689C213.846 22.4142 212.337 22.2633 211.124 22.867L198.715 28.5433C197.734 28.015 196.747 27.4814 195.69 26.9531L193.27 13.4819C193.044 12.1181 192.133 10.9861 190.85 10.4578C189.567 9.9295 188.127 10.0804 186.99 10.9106L175.945 18.8564C174.883 18.479 173.751 18.1772 172.689 17.8753L167.923 5.16419C167.471 3.87583 166.333 2.89474 164.975 2.66833C163.611 2.36645 162.252 2.81927 161.266 3.88122L151.956 13.87C150.819 13.7191 149.687 13.6436 148.549 13.5682L141.434 1.83278C140.679 0.619893 139.391 -0.0593262 138.027 -0.0593262C136.663 -0.0593262 135.38 0.619893 134.62 1.83278L127.434 13.4118C126.297 13.4873 125.165 13.6383 124.027 13.7137L114.723 3.72489C113.818 2.7438 112.378 2.2856 111.015 2.512C109.651 2.81388 108.519 3.72489 108.066 5.00786L103.301 17.719C102.163 18.0208 101.107 18.3982 100.045 18.7L89.0747 10.9052C87.9373 10.075 86.5033 9.92411 85.215 10.4524C83.9266 10.9807 83.021 12.1181 82.7946 13.4765L80.5952 26.9531C79.6141 27.4814 78.5522 28.015 77.5711 28.5433L65.1619 22.867C63.8735 22.2633 62.4396 22.4142 61.3022 23.1689C60.1648 23.9236 59.4855 25.2119 59.561 26.6512L60.0138 40.2733C59.1082 40.9525 58.2726 41.7126 57.367 42.3918L44.1276 39.2868C42.7638 38.985 41.3299 39.3623 40.4189 40.3488C39.4378 41.3299 39.0551 42.7692 39.3569 44.0576L42.4619 57.2969C41.7073 58.1271 41.0226 59.0381 40.3434 59.9437L26.7213 59.4909C25.3575 59.4154 23.9991 60.0947 23.239 61.2321C22.4843 62.3695 22.3333 63.8789 22.9371 65.0918L28.6134 77.501C28.0851 78.4821 27.5515 79.4686 27.0232 80.5251L13.4766 82.7946C12.1127 83.021 10.9807 83.932 10.4524 85.215C9.92413 86.5033 10.0751 87.9372 10.9052 89.0747L18.851 100.12C18.4737 101.182 18.1718 102.314 17.8699 103.376L5.15882 108.141C3.87046 108.594 2.88937 109.732 2.66296 111.09C2.36108 112.454 2.8139 113.812 3.87585 114.799L13.8647 124.108C13.7137 125.246 13.6383 126.378 13.5628 127.515L1.82741 134.625C0.614522 135.38 -0.0646973 136.668 -0.0646973 138.032C-0.0646973 139.396 0.614522 140.679 1.82741 141.439L13.4065 148.625C13.4819 149.762 13.6329 150.894 13.7084 152.032L3.71952 161.336C2.73843 162.242 2.28022 163.681 2.50663 165.045C2.80851 166.409 3.71952 167.541 5.00249 167.993L17.7136 172.759C18.0155 173.896 18.3928 174.953 18.6947 176.015L10.8998 186.985C10.0697 188.122 9.91874 189.556 10.447 190.844C10.9753 192.133 12.1127 193.038 13.4712 193.265L26.8669 195.459C27.3951 196.44 27.9288 197.502 28.4571 198.483L22.7808 210.892C22.177 212.18 22.328 213.614 23.0826 214.752C23.8373 215.889 25.2012 216.568 26.565 216.493L40.1871 216.04C40.8663 216.946 41.6264 217.781 42.3056 218.687L39.2006 232.002C38.8987 233.366 39.2761 234.724 40.2626 235.71C41.2437 236.692 42.683 237.074 43.9713 236.772L57.2107 233.667C58.0408 234.422 58.9519 235.107 59.8575 235.786L59.4047 249.408C59.3292 250.772 60.0084 252.13 61.1459 252.89C62.2833 253.645 63.7926 253.796 65.0055 253.192L77.4148 247.516C78.3959 248.044 79.3823 248.578 80.4389 249.106L82.6329 262.502C82.8593 263.866 83.7703 264.998 85.0533 265.526C86.3416 266.054 87.7755 265.903 88.913 265.073L99.9637 257.133C101.026 257.51 102.158 257.812 103.22 258.114L107.985 270.825C108.438 272.113 109.575 273.094 110.934 273.321C112.297 273.623 113.656 273.17 114.642 272.108L123.952 262.119C125.089 262.27 126.221 262.346 127.359 262.421L134.545 274C135.299 275.137 136.588 275.892 137.951 275.892C139.315 275.892 140.598 275.213 141.358 274L148.544 262.421C149.681 262.346 150.814 262.195 151.951 262.119L161.261 272.108C162.166 273.089 163.605 273.547 164.969 273.321C166.333 273.019 167.465 272.108 167.918 270.825L172.683 258.114C173.821 257.812 174.877 257.435 175.939 257.133L186.985 265.079C188.122 265.909 189.556 266.06 190.844 265.531C192.133 265.003 193.038 263.866 193.265 262.507L195.459 249.112C196.44 248.583 197.502 248.05 198.483 247.521L210.892 253.198C212.18 253.801 213.614 253.65 214.752 252.896C215.889 252.141 216.568 250.853 216.493 249.413L216.04 235.791C216.946 235.112 217.781 234.352 218.687 233.673L231.926 236.778C233.29 237.08 234.724 236.702 235.635 235.716C236.616 234.735 236.999 233.295 236.697 232.007L233.592 218.692C234.347 217.862 235.031 216.951 235.71 216.045L249.333 216.498C250.696 216.574 252.055 215.895 252.815 214.757C253.57 213.62 253.721 212.11 253.117 210.897L247.44 198.488C247.969 197.507 248.502 196.521 249.031 195.464L262.502 193.27C263.866 193.044 264.998 192.133 265.526 190.85C266.054 189.561 265.903 188.127 265.073 186.99L257.127 175.945C257.505 174.883 257.807 173.751 258.108 172.689L270.82 167.923C272.108 167.471 273.089 166.333 273.315 164.975C273.617 163.611 273.165 162.252 272.103 161.266L262.114 151.956C262.265 150.819 262.34 149.687 262.416 148.549L273.995 141.364C275.208 140.609 275.887 139.321 275.887 137.957C276.119 136.668 275.439 135.386 274.226 134.625ZM196.591 230.8C192.127 229.818 189.324 225.501 190.311 221.037C191.292 216.574 195.61 213.771 200.073 214.757C204.536 215.738 207.34 220.056 206.353 224.52C205.447 228.983 201.06 231.786 196.591 230.8ZM192.656 204.164C188.645 203.334 184.634 205.906 183.804 209.916L179.718 229.134C167.007 234.886 152.932 238.136 138.027 238.136C122.82 238.136 108.443 234.805 95.5003 228.751L91.4142 209.534C90.5841 205.523 86.5734 202.952 82.5628 203.782L65.6147 207.415C62.4342 204.159 59.561 200.758 56.8387 197.049H139.391C140.296 197.049 140.981 196.898 140.981 196.068V166.861C140.981 166.031 140.377 165.88 139.391 165.88H115.252V147.342H141.358C143.703 147.342 154.069 148.021 157.401 161.266C158.463 165.352 160.732 178.591 162.242 182.828C163.832 187.594 170.112 197.054 176.845 197.054H217.932C218.385 197.054 218.913 196.979 219.447 196.903C216.574 200.763 213.469 204.472 210.062 207.873L192.656 204.164ZM78.5522 230.422C74.0887 231.403 69.7762 228.53 68.7898 224.142C67.8087 219.679 70.6819 215.366 75.0698 214.38C79.5333 213.399 83.8458 216.272 84.8323 220.66C85.8187 225.123 83.0156 229.511 78.5522 230.422ZM47.2273 103.527C49.0439 107.688 47.2273 112.529 43.0657 114.346C38.9041 116.163 34.0633 114.346 32.2467 110.184C30.4301 106.023 32.2467 101.182 36.4083 99.3654C40.5698 97.4733 45.4106 99.3654 47.2273 103.527ZM37.6158 126.302L55.2485 118.432C59.0327 116.766 60.6984 112.303 59.0327 108.519L55.3994 100.271H69.7008V164.737H40.7962C38.3004 155.962 36.9366 146.652 36.9366 137.046C37.0875 133.493 37.2384 129.86 37.6158 126.302ZM115.176 120.022V101.031H149.229C150.97 101.031 161.638 103.074 161.638 111.02C161.638 117.677 153.466 120.022 146.733 120.022H115.176ZM238.966 137.127C238.966 139.623 238.891 142.118 238.665 144.62H228.298C227.236 144.62 226.859 145.299 226.859 146.285V151.051C226.859 162.247 220.579 164.673 214.978 165.277C209.679 165.88 203.857 163.083 203.173 159.827C200.068 142.35 194.85 138.641 186.677 132.135C196.817 125.704 207.41 116.168 207.41 103.457C207.41 89.6838 197.949 81.0588 191.594 76.8218C182.591 70.8436 172.602 69.7115 169.875 69.7115H62.8116C77.3393 53.5181 97.0151 42.0199 119.332 37.8583L131.968 51.0977C134.841 54.1218 139.536 54.2027 142.56 51.3241L156.711 37.7775C186.295 43.3029 211.42 61.6903 225.873 87.037L216.186 108.907C214.52 112.691 216.186 117.079 219.97 118.82L238.584 127.068C238.815 130.388 238.966 133.795 238.966 137.127ZM131.898 26.6512C135.154 23.5462 140.372 23.6271 143.477 26.9531C146.582 30.209 146.501 35.4272 143.175 38.5322C139.919 41.6372 134.701 41.5563 131.596 38.2303C128.566 34.9743 128.642 29.7508 131.898 26.6512ZM227.921 103.904C229.738 99.7427 234.578 97.8506 238.74 99.7427C242.902 101.559 244.718 106.4 242.902 110.562C241.085 114.723 236.244 116.615 232.083 114.723C227.996 112.912 226.104 108.071 227.921 103.904Z"/>
</mask>
<path d="M274.226 134.625L262.647 127.44C262.572 126.302 262.421 125.17 262.346 124.033L272.334 114.723C273.315 113.818 273.774 112.378 273.547 111.015C273.245 109.651 272.334 108.519 271.051 108.066L258.34 103.301C258.038 102.163 257.661 101.107 257.359 100.045L265.305 88.9992C266.135 87.8618 266.286 86.4279 265.758 85.1395C265.23 83.8511 264.092 82.9455 262.734 82.7191L249.262 80.5251C248.734 79.544 248.201 78.4821 247.672 77.501L253.349 65.0918C253.952 63.8034 253.801 62.3695 253.047 61.2321C252.292 60.0947 251.004 59.4154 249.564 59.4909L235.942 59.9437C235.263 59.0381 234.503 58.2025 233.824 57.2969L236.929 44.0576C237.231 42.6937 236.853 41.3353 235.867 40.3488C234.886 39.3677 233.446 38.985 232.158 39.2868L218.919 42.3918C218.088 41.6372 217.177 40.9525 216.272 40.2733L216.725 26.6512C216.8 25.2874 216.121 23.929 214.984 23.1689C213.846 22.4142 212.337 22.2633 211.124 22.867L198.715 28.5433C197.734 28.015 196.747 27.4814 195.69 26.9531L193.27 13.4819C193.044 12.1181 192.133 10.9861 190.85 10.4578C189.567 9.9295 188.127 10.0804 186.99 10.9106L175.945 18.8564C174.883 18.479 173.751 18.1772 172.689 17.8753L167.923 5.16419C167.471 3.87583 166.333 2.89474 164.975 2.66833C163.611 2.36645 162.252 2.81927 161.266 3.88122L151.956 13.87C150.819 13.7191 149.687 13.6436 148.549 13.5682L141.434 1.83278C140.679 0.619893 139.391 -0.0593262 138.027 -0.0593262C136.663 -0.0593262 135.38 0.619893 134.62 1.83278L127.434 13.4118C126.297 13.4873 125.165 13.6383 124.027 13.7137L114.723 3.72489C113.818 2.7438 112.378 2.2856 111.015 2.512C109.651 2.81388 108.519 3.72489 108.066 5.00786L103.301 17.719C102.163 18.0208 101.107 18.3982 100.045 18.7L89.0747 10.9052C87.9373 10.075 86.5033 9.92411 85.215 10.4524C83.9266 10.9807 83.021 12.1181 82.7946 13.4765L80.5952 26.9531C79.6141 27.4814 78.5522 28.015 77.5711 28.5433L65.1619 22.867C63.8735 22.2633 62.4396 22.4142 61.3022 23.1689C60.1648 23.9236 59.4855 25.2119 59.561 26.6512L60.0138 40.2733C59.1082 40.9525 58.2726 41.7126 57.367 42.3918L44.1276 39.2868C42.7638 38.985 41.3299 39.3623 40.4189 40.3488C39.4378 41.3299 39.0551 42.7692 39.3569 44.0576L42.4619 57.2969C41.7073 58.1271 41.0226 59.0381 40.3434 59.9437L26.7213 59.4909C25.3575 59.4154 23.9991 60.0947 23.239 61.2321C22.4843 62.3695 22.3333 63.8789 22.9371 65.0918L28.6134 77.501C28.0851 78.4821 27.5515 79.4686 27.0232 80.5251L13.4766 82.7946C12.1127 83.021 10.9807 83.932 10.4524 85.215C9.92413 86.5033 10.0751 87.9372 10.9052 89.0747L18.851 100.12C18.4737 101.182 18.1718 102.314 17.8699 103.376L5.15882 108.141C3.87046 108.594 2.88937 109.732 2.66296 111.09C2.36108 112.454 2.8139 113.812 3.87585 114.799L13.8647 124.108C13.7137 125.246 13.6383 126.378 13.5628 127.515L1.82741 134.625C0.614522 135.38 -0.0646973 136.668 -0.0646973 138.032C-0.0646973 139.396 0.614522 140.679 1.82741 141.439L13.4065 148.625C13.4819 149.762 13.6329 150.894 13.7084 152.032L3.71952 161.336C2.73843 162.242 2.28022 163.681 2.50663 165.045C2.80851 166.409 3.71952 167.541 5.00249 167.993L17.7136 172.759C18.0155 173.896 18.3928 174.953 18.6947 176.015L10.8998 186.985C10.0697 188.122 9.91874 189.556 10.447 190.844C10.9753 192.133 12.1127 193.038 13.4712 193.265L26.8669 195.459C27.3951 196.44 27.9288 197.502 28.4571 198.483L22.7808 210.892C22.177 212.18 22.328 213.614 23.0826 214.752C23.8373 215.889 25.2012 216.568 26.565 216.493L40.1871 216.04C40.8663 216.946 41.6264 217.781 42.3056 218.687L39.2006 232.002C38.8987 233.366 39.2761 234.724 40.2626 235.71C41.2437 236.692 42.683 237.074 43.9713 236.772L57.2107 233.667C58.0408 234.422 58.9519 235.107 59.8575 235.786L59.4047 249.408C59.3292 250.772 60.0084 252.13 61.1459 252.89C62.2833 253.645 63.7926 253.796 65.0055 253.192L77.4148 247.516C78.3959 248.044 79.3823 248.578 80.4389 249.106L82.6329 262.502C82.8593 263.866 83.7703 264.998 85.0533 265.526C86.3416 266.054 87.7755 265.903 88.913 265.073L99.9637 257.133C101.026 257.51 102.158 257.812 103.22 258.114L107.985 270.825C108.438 272.113 109.575 273.094 110.934 273.321C112.297 273.623 113.656 273.17 114.642 272.108L123.952 262.119C125.089 262.27 126.221 262.346 127.359 262.421L134.545 274C135.299 275.137 136.588 275.892 137.951 275.892C139.315 275.892 140.598 275.213 141.358 274L148.544 262.421C149.681 262.346 150.814 262.195 151.951 262.119L161.261 272.108C162.166 273.089 163.605 273.547 164.969 273.321C166.333 273.019 167.465 272.108 167.918 270.825L172.683 258.114C173.821 257.812 174.877 257.435 175.939 257.133L186.985 265.079C188.122 265.909 189.556 266.06 190.844 265.531C192.133 265.003 193.038 263.866 193.265 262.507L195.459 249.112C196.44 248.583 197.502 248.05 198.483 247.521L210.892 253.198C212.18 253.801 213.614 253.65 214.752 252.896C215.889 252.141 216.568 250.853 216.493 249.413L216.04 235.791C216.946 235.112 217.781 234.352 218.687 233.673L231.926 236.778C233.29 237.08 234.724 236.702 235.635 235.716C236.616 234.735 236.999 233.295 236.697 232.007L233.592 218.692C234.347 217.862 235.031 216.951 235.71 216.045L249.333 216.498C250.696 216.574 252.055 215.895 252.815 214.757C253.57 213.62 253.721 212.11 253.117 210.897L247.44 198.488C247.969 197.507 248.502 196.521 249.031 195.464L262.502 193.27C263.866 193.044 264.998 192.133 265.526 190.85C266.054 189.561 265.903 188.127 265.073 186.99L257.127 175.945C257.505 174.883 257.807 173.751 258.108 172.689L270.82 167.923C272.108 167.471 273.089 166.333 273.315 164.975C273.617 163.611 273.165 162.252 272.103 161.266L262.114 151.956C262.265 150.819 262.34 149.687 262.416 148.549L273.995 141.364C275.208 140.609 275.887 139.321 275.887 137.957C276.119 136.668 275.439 135.386 274.226 134.625ZM196.591 230.8C192.127 229.818 189.324 225.501 190.311 221.037C191.292 216.574 195.61 213.771 200.073 214.757C204.536 215.738 207.34 220.056 206.353 224.52C205.447 228.983 201.06 231.786 196.591 230.8ZM192.656 204.164C188.645 203.334 184.634 205.906 183.804 209.916L179.718 229.134C167.007 234.886 152.932 238.136 138.027 238.136C122.82 238.136 108.443 234.805 95.5003 228.751L91.4142 209.534C90.5841 205.523 86.5734 202.952 82.5628 203.782L65.6147 207.415C62.4342 204.159 59.561 200.758 56.8387 197.049H139.391C140.296 197.049 140.981 196.898 140.981 196.068V166.861C140.981 166.031 140.377 165.88 139.391 165.88H115.252V147.342H141.358C143.703 147.342 154.069 148.021 157.401 161.266C158.463 165.352 160.732 178.591 162.242 182.828C163.832 187.594 170.112 197.054 176.845 197.054H217.932C218.385 197.054 218.913 196.979 219.447 196.903C216.574 200.763 213.469 204.472 210.062 207.873L192.656 204.164ZM78.5522 230.422C74.0887 231.403 69.7762 228.53 68.7898 224.142C67.8087 219.679 70.6819 215.366 75.0698 214.38C79.5333 213.399 83.8458 216.272 84.8323 220.66C85.8187 225.123 83.0156 229.511 78.5522 230.422ZM47.2273 103.527C49.0439 107.688 47.2273 112.529 43.0657 114.346C38.9041 116.163 34.0633 114.346 32.2467 110.184C30.4301 106.023 32.2467 101.182 36.4083 99.3654C40.5698 97.4733 45.4106 99.3654 47.2273 103.527ZM37.6158 126.302L55.2485 118.432C59.0327 116.766 60.6984 112.303 59.0327 108.519L55.3994 100.271H69.7008V164.737H40.7962C38.3004 155.962 36.9366 146.652 36.9366 137.046C37.0875 133.493 37.2384 129.86 37.6158 126.302ZM115.176 120.022V101.031H149.229C150.97 101.031 161.638 103.074 161.638 111.02C161.638 117.677 153.466 120.022 146.733 120.022H115.176ZM238.966 137.127C238.966 139.623 238.891 142.118 238.665 144.62H228.298C227.236 144.62 226.859 145.299 226.859 146.285V151.051C226.859 162.247 220.579 164.673 214.978 165.277C209.679 165.88 203.857 163.083 203.173 159.827C200.068 142.35 194.85 138.641 186.677 132.135C196.817 125.704 207.41 116.168 207.41 103.457C207.41 89.6838 197.949 81.0588 191.594 76.8218C182.591 70.8436 172.602 69.7115 169.875 69.7115H62.8116C77.3393 53.5181 97.0151 42.0199 119.332 37.8583L131.968 51.0977C134.841 54.1218 139.536 54.2027 142.56 51.3241L156.711 37.7775C186.295 43.3029 211.42 61.6903 225.873 87.037L216.186 108.907C214.52 112.691 216.186 117.079 219.97 118.82L238.584 127.068C238.815 130.388 238.966 133.795 238.966 137.127ZM131.898 26.6512C135.154 23.5462 140.372 23.6271 143.477 26.9531C146.582 30.209 146.501 35.4272 143.175 38.5322C139.919 41.6372 134.701 41.5563 131.596 38.2303C128.566 34.9743 128.642 29.7508 131.898 26.6512ZM227.921 103.904C229.738 99.7427 234.578 97.8506 238.74 99.7427C242.902 101.559 244.718 106.4 242.902 110.562C241.085 114.723 236.244 116.615 232.083 114.723C227.996 112.912 226.104 108.071 227.921 103.904Z" stroke="white" stroke-width="2" mask="url(#path-1-inside-1_1_13)"/>
</svg>
