<svg viewBox="0 0 276 276" fill="none" xmlns="http://www.w3.org/2000/svg">
<path d="M179.022 146.993C180.807 146.993 182.409 147.122 183.843 147.947C185.273 148.77 186.313 150.295 187.21 151.844L187.212 151.847L206.484 184.492L206.921 185.233L207.348 184.486L216.983 167.656C217.839 166.178 218.874 165.118 220.35 164.268L220.349 164.268C221.859 163.398 223.493 162.805 225.171 162.805C226.873 162.805 229.015 163.414 230.5 164.268C231.976 165.118 233.011 166.178 233.867 167.656L271.903 233.455V233.456C272.773 234.955 273.356 236.628 273.357 238.306C273.357 239.982 272.772 241.654 271.903 243.155C271.075 244.585 269.573 245.654 268.029 246.543C266.518 247.412 264.886 248.007 263.207 248.007H207.767L216.335 232.685H253.933L253.496 231.934L225.604 183.987L225.169 183.241L224.739 183.988L215.61 199.801L215.609 199.802L198.37 229.889C191.315 241.765 181.233 248.007 167.357 248.007H131.857C130.178 248.007 128.546 247.412 127.036 246.543C125.492 245.654 123.989 244.585 123.161 243.155C122.336 241.728 122.213 240.088 122.214 238.306C122.215 236.521 122.335 234.881 123.161 233.456V233.455L170.325 151.843L170.326 151.844C171.182 150.365 172.724 148.796 174.2 147.947C175.633 147.122 177.237 146.993 179.022 146.993ZM178.588 167.666L141.567 231.935L141.135 232.685H166.85C171.08 232.685 174.612 232.041 177.699 230.378C180.594 228.817 183.055 226.381 185.33 222.828L185.784 222.102L185.79 222.091L198.22 200.298L198.363 200.048L198.217 199.798L179.453 167.664L179.019 166.92L178.588 167.666Z" stroke="white"/>
<g clip-path="url(#clip0_53_10)">
<path d="M154.13 3.50031H95.6816L77.9287 34.4261L77.4951 35.181L77.0615 34.4261L59.3086 3.50031H0.860352L77.4951 136.995L154.13 3.50031Z" stroke="white"/>
<path d="M123.131 3.50024H95.6819L77.929 34.426L77.4954 35.1809L77.0618 34.426L59.3088 3.50024H31.8596L77.4954 82.9944L123.131 3.50024Z" stroke="white"/>
</g>
<path d="M117.894 137.31L132.225 152L145.362 138.535C147.353 136.494 150.139 131.067 145.362 125.681C140.585 120.295 134.813 124.253 132.225 126.905C129.24 124.457 122.472 119.56 117.297 127.517C114.531 131.771 116.899 136.29 117.894 137.31Z" stroke="white"/>
<defs>
<clipPath id="clip0_53_10">
<rect width="155" height="135" fill="white" transform="translate(0 3)"/>
</clipPath>
</defs>
</svg>
