<svg width="213" height="213" viewBox="0 0 213 213" fill="none" xmlns="http://www.w3.org/2000/svg">
<path d="M106 208V111L21 61V159.5L106 208Z" fill="url(#paint0_linear_113_2)"/>
<path d="M113.436 196.887C113.488 193.799 113.151 189.975 113.359 186.92C113.361 186.877 113.364 186.834 113.367 186.791C113.452 185.542 113.575 184.27 113.723 182.73C113.741 182.534 113.761 182.333 113.781 182.128C113.956 180.303 114.165 178.061 114.398 175.006C115.181 164.748 114.661 156.659 114.499 154.144C114.174 149.098 114.167 143.715 114.158 136.371C114.157 135.699 114.158 135.011 114.157 134.305C114.156 133.733 114.419 133.26 114.745 133.247C115.071 133.234 115.337 133.687 115.338 134.259C115.339 134.95 115.34 135.623 115.34 136.28C115.34 136.283 115.34 136.286 115.34 136.289C115.35 143.679 115.357 148.945 115.674 153.872C115.839 156.442 116.371 164.729 115.569 175.24C115.334 178.328 115.123 180.595 114.947 182.431C114.928 182.632 114.909 182.828 114.89 183.019C114.89 183.023 114.89 183.028 114.889 183.032C114.74 184.582 114.622 185.801 114.541 186.996C114.54 187.021 114.538 187.047 114.537 187.072C114.327 190.162 114.668 193.913 114.617 196.908C114.607 197.48 114.334 197.939 114.008 197.934C113.682 197.927 113.426 197.459 113.436 196.887ZM17.4421 85.0487C17.8748 88.0308 17.827 91.9979 17.6344 95.5007C17.4404 99.028 17.0914 102.22 16.8771 103.723C16.6677 105.191 16.5999 106.823 16.5582 108.77C16.5487 109.217 16.5405 109.68 16.532 110.159C16.5039 111.741 16.4724 113.501 16.3791 115.433C16.0363 122.531 16.0218 127.159 16.0529 130.463C16.0593 131.143 16.0681 131.776 16.0762 132.368C16.0762 132.368 16.0762 132.369 16.0762 132.37C16.1068 134.605 16.1292 136.272 15.9947 137.805C15.7552 140.534 15.5429 142.762 15.1282 145.452C14.5564 149.16 14.6243 154.443 15.0176 157.881C15.0391 158.07 15.0621 158.263 15.0845 158.458C15.1232 158.794 15.1631 159.141 15.2038 159.5L15.0476 162.562L18.1275 164.534C20.2595 165.45 22.8667 166.598 26.437 168.373C29.8658 170.078 32.7511 171.744 35.282 173.259C36.0073 173.694 36.6969 174.112 37.3594 174.513C39.0315 175.526 40.528 176.433 41.9722 177.226C50.9283 182.146 55.9403 185.252 58.9976 187.366C61.3489 188.992 62.5731 190.057 63.4561 190.826C63.723 191.058 63.9582 191.264 64.1845 191.449C66.2026 193.102 68.1565 194.442 70.5069 196.054C71.0286 196.412 71.5712 196.784 72.1369 197.175C74.0294 198.483 75.5297 199.3 76.7344 199.891C77.2613 200.149 77.7313 200.366 78.1751 200.569C78.1834 200.572 78.1916 200.576 78.1999 200.58C78.2618 200.608 78.3229 200.636 78.3838 200.664C78.4297 200.685 78.4762 200.705 78.5221 200.727C78.5423 200.731 78.5596 200.737 78.5728 200.74C78.5832 200.743 78.5912 200.746 78.5964 200.747C78.5975 200.747 78.5986 200.747 78.5997 200.747C78.6938 200.775 78.7695 200.808 78.7851 200.815C78.8123 200.826 78.8356 200.838 78.8477 200.844C78.9115 200.874 78.9918 200.916 79.0449 200.944C79.1815 201.017 79.4177 201.146 79.7817 201.348C80.1047 201.513 80.421 201.66 80.8172 201.843C80.8422 201.855 80.8673 201.866 80.8922 201.878C81.2787 202.057 81.7305 202.267 82.2917 202.54C82.8024 202.789 83.14 203.25 83.0454 203.569C82.9505 203.888 82.4596 203.945 81.9489 203.696C81.4201 203.438 80.9967 203.242 80.61 203.063C80.5854 203.052 80.5609 203.041 80.5363 203.029C80.1332 202.843 79.7516 202.665 79.349 202.459C79.2142 202.39 79.0762 202.317 78.9477 202.249C78.7127 202.131 78.4411 202.005 78.1153 201.856C78.0499 201.826 77.9828 201.794 77.9138 201.763C77.4708 201.56 76.955 201.324 76.3817 201.043C75.0401 200.384 73.3814 199.478 71.3219 198.055C70.7818 197.682 70.2572 197.322 69.7448 196.971C67.3849 195.353 65.2849 193.913 63.1427 192.159C62.8488 191.918 62.5726 191.677 62.277 191.42C61.4009 190.659 60.3549 189.748 58.1812 188.245C55.2687 186.231 50.3792 183.194 41.4739 178.301C39.958 177.469 38.3619 176.501 36.6613 175.471C36.0121 175.078 35.346 174.676 34.6648 174.269C32.1733 172.777 29.3787 171.164 26.0681 169.518C22.3523 167.67 19.7156 166.522 17.528 165.585L13.8052 163.202L13.9941 159.5C13.9709 159.297 13.948 159.098 13.9254 158.902C13.9152 158.816 13.905 158.73 13.8948 158.645C13.8826 158.538 13.8704 158.433 13.8584 158.328C13.4392 154.665 13.3562 149.044 13.988 144.946C14.3845 142.375 14.5886 140.242 14.8268 137.528C14.9439 136.194 14.9246 134.768 14.8952 132.578C14.887 131.964 14.879 131.288 14.8719 130.538C14.8403 127.174 14.8544 122.476 15.201 115.299C15.2914 113.427 15.3216 111.744 15.3496 110.171C15.3583 109.682 15.3672 109.202 15.3772 108.733C15.4191 106.776 15.4875 104.955 15.7296 103.258C15.9287 101.863 16.269 98.773 16.4577 95.3423C16.6478 91.887 16.6763 88.2186 16.2961 85.5973C16.2566 85.3247 16.2175 85.0498 16.1782 84.7752C15.8391 82.4105 15.4936 79.9995 14.9185 78.0583C13.0864 73.647 12.5369 67.4212 12.4688 61L13.146 45.7355L25.3255 53.6467C30.7406 56.7552 36.0842 60.3496 40.447 63.0405C40.5632 63.1123 40.6794 63.184 40.7956 63.2557C51.0105 69.5559 58.543 73.9497 61.1106 75.4473C61.2303 75.5171 61.3393 75.5806 61.4372 75.6378C61.5247 75.6888 61.604 75.7344 61.6737 75.7752C62.7189 76.3865 63.6636 76.8935 64.6535 77.4249C64.7075 77.4539 64.7616 77.4829 64.8156 77.5118C65.8614 78.0734 66.9573 78.6657 68.2236 79.4152C72.9322 82.202 76.804 84.4171 80.1593 86.3247C80.7805 86.6778 81.3842 87.0218 81.9732 87.3562C81.975 87.3572 81.9767 87.3582 81.9784 87.3593C84.5636 88.8268 86.8572 90.1282 89.0142 91.3966C92.9475 93.7096 95.642 95.2079 97.7492 96.354C98.41 96.7135 99.0202 97.0425 99.5963 97.3527C100.842 98.0235 101.93 98.6092 103.036 99.2408C105.116 100.429 107.057 101.476 108.968 102.509C109.139 102.601 109.309 102.694 109.479 102.786C109.821 102.971 110.163 103.156 110.505 103.341L115.121 106.383L114.885 111C114.953 112.962 115.008 114.926 115.01 116.982C115.01 117.554 114.745 118.029 114.419 118.041C114.093 118.052 113.828 117.597 113.827 117.026C113.826 114.971 113.769 113.004 113.7 111L113.904 106.999L109.904 104.363C109.613 104.206 109.322 104.048 109.029 103.89C108.858 103.797 108.686 103.705 108.514 103.612C106.607 102.582 104.632 101.513 102.513 100.303C101.447 99.6945 100.419 99.1411 99.1981 98.4836C98.6155 98.1698 97.988 97.8321 97.2915 97.4533C95.1523 96.2898 92.422 94.7723 88.4507 92.437C86.3198 91.1839 84.056 89.8984 81.4724 88.4317C80.8796 88.0952 80.2697 87.7491 79.6409 87.3916C76.2772 85.4793 72.3856 83.2524 67.6511 80.4503C66.4547 79.7422 65.4161 79.1802 64.3747 78.621C64.3164 78.5895 64.2581 78.558 64.1997 78.5265C63.2185 77.9998 62.2208 77.4652 61.1167 76.8194C60.9692 76.7331 60.7811 76.6225 60.5543 76.4902C57.9829 74.9904 50.4195 70.5794 40.1672 64.2562C40.1355 64.2364 40.1038 64.2167 40.072 64.1969C33.2025 59.96 29.3269 57.5696 26.2245 56.0833C25.5764 55.7729 24.9757 55.4763 24.4159 55.1929L14.7975 48.9453L14.2628 61C14.3727 62.7398 14.41 64.1561 14.4307 65.3763C14.4361 65.6927 14.4412 65.9921 14.4453 66.2776C14.4629 67.5109 14.477 68.4856 14.5589 69.4596C14.8066 72.4064 15.2125 74.5195 15.9699 77.0763C16.6119 79.2438 16.9918 81.8991 17.3242 84.2252C17.3247 84.2287 17.3252 84.2322 17.3256 84.2356C17.3651 84.5116 17.4036 84.7834 17.4421 85.0487ZM89.8103 205.927C90.3019 206.219 90.5659 206.682 90.3999 206.962C90.2332 207.243 89.6988 207.234 89.2068 206.942C88.0349 206.247 86.8629 205.551 85.691 204.856C85.1994 204.564 84.9353 204.1 85.1014 203.82C85.2681 203.54 85.8025 203.548 86.2944 203.84C87.4664 204.536 88.6383 205.231 89.8103 205.927ZM23.3208 82.6633C23.387 83.2212 23.1803 83.777 22.8607 83.9038C22.5413 84.0298 22.2292 83.6796 22.1632 83.1221C22.1282 82.8273 22.065 82.3425 21.9797 81.6903C21.5382 78.3151 20.508 70.4404 19.7728 61L19.8703 58.8043L21.6222 59.9423C24.9561 61.5693 28.4743 63.3572 31.9976 65.2623C33.0517 65.8323 33.998 66.3395 34.8999 66.8226C38.7572 68.8888 42.2082 69.945 49.3991 74.2145C68.7379 85.6967 87.7856 97.6515 107.057 109.202L108.141 109.916L108.085 111C107.981 123.661 108.024 136.317 108.394 148.971C108.692 159.11 108.736 169.218 108.716 179.366C108.7 187.823 108.094 203.327 108.032 206.975C108.022 207.547 107.749 208.006 107.423 208C107.097 207.994 106.841 207.526 106.851 206.954C106.912 203.332 107.517 187.88 107.534 179.454C107.553 169.326 107.51 159.239 107.213 149.119C106.841 136.423 106.612 123.715 106.479 111L106.491 110.751L106.243 110.587C86.7401 99.3896 67.3713 87.9255 48.0339 76.444C40.9129 72.216 38.3096 69.993 34.4662 67.9342C33.5622 67.45 32.6103 66.9406 31.5464 66.3654C27.9663 64.4295 24.3929 62.6168 21.0159 60.973L20.9711 60.9439L20.9686 61C21.6913 70.1623 22.6892 77.7983 23.1301 81.1731C23.218 81.8461 23.2839 82.3514 23.3208 82.6633ZM22.8272 109.263C22.9166 115.649 22.7574 124.726 22.6175 132.659C22.5492 136.528 22.4847 140.124 22.4573 143.003C22.4149 147.464 22.1322 150.273 21.8515 153.058C21.8486 153.088 21.8457 153.118 21.8428 153.147C21.6489 155.072 21.4571 156.997 21.3428 159.5L21.1699 159.202C22.1147 159.8 23.167 160.441 24.3746 161.146C28.3204 163.448 33.9057 166.413 39.5395 169.405C39.5438 169.407 39.5481 169.41 39.5525 169.412C45.1562 172.388 51.1366 174.886 55.1515 177.23C69.1427 185.396 77.4159 191.051 81.4868 194.107C88.6075 199.454 97.93 203.334 105.07 209.031C105.78 209.795 103.876 209.744 102.411 208.61C102.357 208.571 102.303 208.532 102.249 208.492C101.734 208.121 101.282 207.799 100.629 207.375C99.6682 206.785 98.941 206.367 98.2772 205.986C96.5355 204.987 84.5344 197.892 80.5588 194.907C76.6953 192.007 67.8967 187.695 53.8159 179.477C49.8753 177.177 44.7178 173.496 39.084 170.505C39.0686 170.496 39.0532 170.488 39.0379 170.48C33.4453 167.51 27.8055 164.516 23.7938 162.176C22.5904 161.474 21.534 160.831 20.583 160.231L20.1359 159.945L20.1586 159.5C20.2769 156.838 20.4795 154.809 20.6793 152.826C20.6822 152.799 20.6851 152.771 20.688 152.744C20.9661 149.985 21.2355 147.306 21.2763 143.009C21.3043 140.067 21.3678 136.428 21.4365 132.535C21.576 124.636 21.7348 115.686 21.6462 109.355C21.6384 108.783 21.8967 108.299 22.2229 108.274C22.5489 108.249 22.8191 108.692 22.8272 109.263ZM30.1883 109.395C31.4099 126.131 31.1721 142.955 30.0121 159.5L25.4663 151.672C26.4607 152.336 27.4515 153.003 28.4386 153.674C32.4276 156.001 37.9794 159.274 43.5231 162.544C43.5856 162.581 43.648 162.618 43.7105 162.656C49.1942 165.89 54.654 169.11 58.5841 171.404C72.5751 179.57 81.1774 184.724 85.2484 187.78C89.0441 190.63 90.1787 191.279 91.8599 192.243C91.9056 192.27 91.9512 192.297 91.9968 192.323C92.0003 192.324 92.0039 192.325 92.0074 192.326C92.0726 192.346 92.1254 192.366 92.1522 192.377C92.2068 192.399 92.2497 192.42 92.2657 192.428C92.3028 192.446 92.333 192.463 92.3438 192.469C92.3879 192.493 92.4378 192.522 92.4697 192.541C92.7665 192.717 93.6876 193.284 94.4073 193.751C95.1448 194.229 95.6563 194.595 96.1941 194.983C96.2485 195.022 96.3028 195.062 96.3572 195.101C96.8418 195.452 97.3691 195.833 98.1408 196.36C98.6109 196.682 98.8131 197.142 98.5924 197.388C98.3715 197.633 97.8119 197.572 97.3419 197.251C96.53 196.696 95.9689 196.29 95.4821 195.938C95.4282 195.899 95.3743 195.86 95.3203 195.821C94.8056 195.449 94.3524 195.127 93.6988 194.703C92.7384 194.113 92.0122 193.695 91.3485 193.315C89.6082 192.316 88.2977 191.564 84.3224 188.58C80.4591 185.679 72.0854 180.651 58.004 172.433C54.0666 170.135 48.6004 166.911 43.1213 163.679C43.0569 163.641 42.9924 163.604 42.928 163.566C37.3812 160.294 31.8384 157.024 27.8585 154.702C26.8266 154.1 25.7944 153.502 24.762 152.907L28.591 159.5C28.666 142.779 28.2041 126.333 29.0073 109.488C28.9608 106.167 28.9425 103.132 28.9258 100.319C28.8766 92.0436 28.8381 85.6926 28.1205 79.6381C27.9632 78.3108 27.8296 74.8314 27.6632 69.8034C27.6145 68.33 27.5634 66.7136 27.5074 64.9668C27.4672 63.7113 27.4249 62.3878 27.3799 61L17.7653 66.499C20.704 68.1019 23.9725 69.881 27.5287 71.804C28.5829 72.374 29.5292 72.8812 30.431 73.3642C34.2885 75.4305 37.3337 77.0607 44.5249 81.3304C53.3729 86.5838 68.0848 95.5782 75.9181 100.447C79.8415 102.886 82.0355 104.298 83.5811 105.308C84.0115 105.589 84.3888 105.839 84.7355 106.067C85.6411 106.662 86.3446 107.124 87.2802 107.707C92.7538 111.116 96.9872 113.536 102.668 116.665L99.4276 111C99.4698 112.496 99.5186 114.078 99.5727 115.785C99.5906 116.355 99.3407 116.853 99.0149 116.896C98.6892 116.939 98.4099 116.511 98.3917 115.941C98.3359 114.178 98.2856 112.545 98.2422 111L102.067 117.687C96.4201 114.575 92.1458 112.13 86.6376 108.699C85.6609 108.091 84.9079 107.596 83.9864 106.989C83.6447 106.765 83.2799 106.524 82.8717 106.258C81.3518 105.264 79.1808 103.867 75.2781 101.441C67.4588 96.5806 52.7681 87.5997 43.9473 82.3624C36.8264 78.1345 33.8408 76.5347 29.9973 74.4759C29.0937 73.9919 28.1423 73.4828 27.0788 72.9078C23.4636 70.9529 20.1421 69.1452 17.1641 67.521L28.5655 61C28.6088 62.3345 28.6497 63.6086 28.6884 64.8188C28.7443 66.5634 28.7957 68.1759 28.8442 69.6435C29.0139 74.7728 29.1434 78.0421 29.2782 79.1793C30.0209 85.446 30.0605 92.0731 30.1097 100.426C30.126 103.207 30.1433 106.18 30.1883 109.395ZM99.3091 148.584C99.2924 148.013 99.5438 147.518 99.8697 147.478C100.196 147.437 100.473 147.867 100.49 148.437C100.578 151.451 100.651 153.617 100.708 155.311C100.814 158.446 100.866 159.961 100.857 162.23C100.834 168.087 100.822 173.742 100.812 178.831C100.795 187.288 100.782 194.181 100.72 197.829C100.71 198.401 100.438 198.86 100.111 198.854C99.7856 198.848 99.5296 198.38 99.5392 197.808C99.6008 194.186 99.6145 187.345 99.6309 178.919C99.6408 173.825 99.651 168.151 99.6746 162.257C99.6834 160.056 99.6356 158.626 99.5319 155.561C99.4746 153.868 99.3998 151.678 99.3091 148.584Z" fill="white" fill-opacity="0.5"/>
<path d="M21.5 60L106.5 110.5L192 60L105.5 11L21.5 60Z" fill="url(#paint1_linear_113_2)"/>
<path d="M27.3253 72.11C29.973 73.7441 33.4564 75.4215 35.9965 77.1719C36.0322 77.1965 36.0678 77.221 36.1034 77.2456C37.1415 77.961 38.1809 78.721 39.4386 79.6404C39.5987 79.7575 39.7627 79.8778 39.9304 80.0003C41.4216 81.0896 43.256 82.4233 45.7825 84.1953C54.2662 90.1456 61.5359 93.8599 63.7972 95.0151C68.3326 97.3318 72.9972 100.095 79.362 103.866C79.944 104.211 80.5398 104.565 81.1515 104.927C81.6471 105.221 81.9226 105.69 81.7674 105.978C81.6117 106.265 81.0841 106.26 80.5884 105.967C79.9894 105.612 79.4057 105.266 78.837 104.929C78.8344 104.928 78.8318 104.926 78.8292 104.925C72.4244 101.131 67.861 98.4275 63.4325 96.1653C61.1219 94.985 53.6744 91.1783 44.9813 85.0811C42.4278 83.2902 40.5721 81.9429 39.0719 80.847C38.9077 80.727 38.7478 80.6097 38.5922 80.496C38.5886 80.4933 38.585 80.4905 38.5813 80.4878C37.3155 79.5625 36.3201 78.834 35.3266 78.1493C35.3053 78.135 35.2841 78.1206 35.2628 78.1063C32.6941 76.3361 29.272 74.6995 26.704 73.1145C26.2138 72.8118 25.9553 72.3411 26.127 72.0637C26.2988 71.7867 26.8352 71.8078 27.3253 72.11ZM173.661 45.5222C170.834 44.4181 167.381 42.407 164.405 40.5003C161.41 38.5803 158.784 36.6918 157.573 35.7594C156.389 34.8481 154.992 33.9789 153.306 32.976C152.92 32.7461 152.518 32.5091 152.102 32.2639C150.729 31.454 149.202 30.5526 147.555 29.5122C141.503 25.69 137.455 23.38 134.543 21.7663C133.944 21.4344 133.385 21.128 132.862 20.8412C132.862 20.8407 132.861 20.8402 132.86 20.8397C130.887 19.7571 129.414 18.9489 128.137 18.0707C125.863 16.5075 124.015 15.2165 121.862 13.5205C118.894 11.1816 114.23 8.61787 111.024 7.25332C110.848 7.17844 110.667 7.10257 110.485 7.02518C109.804 6.73602 109.077 6.42727 108.285 6.08358L105.788 4.49714L102.653 6.11926C100.972 7.35511 98.9245 8.81718 96.1869 10.6295C92.9708 12.7586 90.0633 14.4348 87.4664 15.8783C86.7222 16.292 86.0095 16.6824 85.3257 17.0579C83.5999 18.0059 82.055 18.8541 80.6349 19.7133C71.8284 25.0416 66.5941 27.8476 63.21 29.4496C60.6074 30.6817 59.0628 31.2144 57.9484 31.5984C57.6116 31.7145 57.3137 31.8162 57.0381 31.9204C54.581 32.8497 52.428 33.879 49.838 35.1174C49.2632 35.3922 48.6651 35.6779 48.0391 35.9746C45.9453 36.9667 44.4766 37.8631 43.3536 38.615C42.8624 38.944 42.4366 39.2445 42.0356 39.5288C42.0283 39.5342 42.021 39.5396 42.0137 39.545C41.9578 39.5846 41.902 39.6235 41.8469 39.6625C41.8054 39.6919 41.7645 39.7224 41.7229 39.7517C41.7086 39.7669 41.6952 39.7792 41.6853 39.7888C41.6775 39.7964 41.6714 39.8023 41.6674 39.806C41.6668 39.8069 41.6662 39.8078 41.6656 39.8088C41.594 39.8768 41.5271 39.9261 41.5134 39.9363C41.4895 39.9541 41.4675 39.9686 41.4565 39.9762C41.398 40.0166 41.3208 40.0653 41.2692 40.0973C41.1366 40.1795 40.9049 40.3204 40.5457 40.5362C40.2391 40.7348 39.9513 40.9363 39.5914 41.189C39.5687 41.205 39.5461 41.221 39.5235 41.237C39.1725 41.4835 38.7613 41.7713 38.2396 42.1225C37.7649 42.4421 37.1941 42.5058 36.9646 42.2644C36.7353 42.0228 36.9344 41.5679 37.4089 41.2483C37.9004 40.9173 38.2853 40.6473 38.6365 40.4007C38.6587 40.3849 38.6809 40.3692 38.7031 40.3534C39.0693 40.0963 39.4164 39.8531 39.7992 39.6061C39.9274 39.5234 40.0603 39.4397 40.1852 39.3624C40.406 39.2167 40.6529 39.0436 40.9477 38.835C41.0068 38.7931 41.0682 38.7506 41.1306 38.7064C41.5308 38.4226 41.9969 38.0921 42.5313 37.7342C43.7821 36.8967 45.4087 35.9074 47.6873 34.8277C48.2848 34.5446 48.8629 34.2681 49.4274 33.9981C52.0273 32.7545 54.3403 31.6476 56.9484 30.6611C57.3063 30.5258 57.6554 30.406 58.0283 30.2773C59.1335 29.896 60.4535 29.441 62.8595 28.302C66.0833 26.7759 71.1962 24.042 79.9527 18.744C81.4433 17.8422 83.0913 16.9377 84.8466 15.9736C85.5166 15.6056 86.2028 15.2273 86.9018 14.8388C89.4583 13.4177 92.2742 11.7941 95.3795 9.73836C98.2422 7.84318 100.327 6.34538 102.045 5.07632L105.85 3.10757L108.88 5.03301C109.512 5.30533 110.103 5.55673 110.667 5.79623C110.747 5.8299 110.827 5.86358 110.908 5.89725C111.007 5.93943 111.106 5.98132 111.203 6.02289C114.62 7.47688 119.588 10.1953 122.867 12.7792C124.925 14.4007 126.694 15.6372 128.955 17.1918C130.067 17.9563 131.326 18.6475 133.26 19.709C133.803 20.007 134.399 20.3355 135.059 20.7016C138.023 22.3442 142.134 24.689 148.253 28.5539C149.849 29.5616 151.31 30.4238 152.675 31.2291C153.099 31.4793 153.514 31.7251 153.921 31.967C155.615 32.9748 157.177 33.9383 158.546 34.9918C159.671 35.8577 162.21 37.6877 165.124 39.5552C168.059 41.436 171.26 43.2821 173.745 44.2527C174.003 44.3536 174.263 44.4561 174.523 44.5582C176.763 45.4372 179.046 46.3336 181.031 46.797C185.522 47.3581 190.862 49.7074 196.197 52.5919L208.976 60.5993L196.33 67.3309C190.682 70.8192 184.481 73.9821 179.711 76.667C179.591 76.7344 179.472 76.8019 179.352 76.8693C168.817 82.7996 161.271 87.2942 158.698 88.8262C158.578 88.8977 158.469 88.9628 158.371 89.0212C158.283 89.0733 158.205 89.121 158.135 89.1626C157.086 89.7854 156.178 90.3704 155.227 90.9832C155.175 91.0167 155.123 91.0501 155.071 91.0836C154.066 91.731 153.009 92.4076 151.731 93.1579C146.978 95.9481 143.137 98.2793 139.819 100.305C139.205 100.68 138.607 101.045 138.025 101.4C138.023 101.401 138.021 101.403 138.02 101.404C135.465 102.966 133.199 104.352 131.029 105.634C127.072 107.972 124.437 109.615 122.399 110.912C121.759 111.319 121.172 111.696 120.617 112.053C119.418 112.823 118.371 113.496 117.275 114.162C115.213 115.415 113.343 116.614 111.5 117.795C111.335 117.9 111.171 118.004 111.007 118.109C111.004 118.111 111.001 118.113 110.998 118.115L105.967 120.753L101.983 118.104C99.9042 116.968 97.8485 115.838 95.7167 114.574C95.2212 114.28 94.9461 113.808 95.1023 113.521C95.259 113.235 95.7879 113.241 96.2832 113.535C98.357 114.764 100.365 115.869 102.446 117.006C102.493 117.032 102.541 117.058 102.588 117.084L106.039 119.378L110.395 117.094C110.514 117.017 110.634 116.94 110.754 116.863C112.592 115.686 114.498 114.467 116.598 113.19C117.655 112.548 118.644 111.912 119.819 111.157C120.38 110.797 120.984 110.409 121.657 109.98C123.727 108.663 126.396 106.998 130.391 104.637C132.535 103.371 134.773 102.003 137.326 100.442C137.912 100.084 138.514 99.7151 139.136 99.3354C142.462 97.3043 146.323 94.9614 151.102 92.1559C152.31 91.447 153.312 90.8061 154.313 90.1614C154.369 90.1254 154.426 90.0894 154.482 90.0533C155.425 89.4459 156.383 88.8277 157.49 88.1697C157.638 88.0818 157.828 87.97 158.055 87.8346C160.631 86.3003 168.208 81.7869 178.781 75.8348C178.814 75.8165 178.847 75.7982 178.88 75.7799C185.964 71.7917 189.961 69.5418 192.785 67.5346C193.743 66.8542 194.607 66.2656 195.394 65.7462L205.306 60.4697L195.289 54.1933C194.17 53.6307 193.224 53.1248 192.386 52.6688C192.106 52.5164 191.842 52.3722 191.589 52.234C190.5 51.637 189.639 51.1653 188.744 50.753C186.04 49.5056 183.988 48.8096 181.374 48.1993C179.157 47.6818 176.643 46.694 174.441 45.8284C174.437 45.8271 174.434 45.8258 174.431 45.8245C174.169 45.7218 173.912 45.6204 173.661 45.5222ZM31.4931 46.9666C30.9908 47.2483 30.4547 47.2466 30.295 46.9625C30.1358 46.6778 30.4138 46.2179 30.9162 45.9359C32.1135 45.2645 33.3108 44.593 34.5081 43.9215C35.0104 43.64 35.5466 43.6415 35.7062 43.9257C35.8654 44.2103 35.5873 44.6703 35.085 44.9523C33.8877 45.6237 32.6904 46.2952 31.4931 46.9666ZM172.854 51.8215C172.332 51.6021 171.947 51.1463 171.993 50.8052C172.04 50.4648 172.501 50.3671 173.022 50.5864C173.298 50.7024 173.754 50.8881 174.368 51.1376C177.417 52.3776 184.368 55.2046 192.561 59.01L194.269 60.0801L192.579 60.9797C189.259 63.3201 185.643 65.7795 181.898 68.1758C180.881 68.8264 179.973 69.4127 179.107 69.9716C175.404 72.3619 172.786 74.8826 165.516 79.1372C146.299 90.383 126.818 101.162 107.566 112.304L106.374 112.929L105.43 112.301C94.1918 105.489 82.8807 98.8079 71.3948 92.4284C62.4623 87.4671 53.6865 82.305 44.9092 77.0672C37.5934 72.7015 24.4774 64.2044 21.3502 62.2743C20.8598 61.9716 20.6015 61.5009 20.7732 61.2235C20.945 60.9463 21.4813 60.9672 21.9715 61.2697C25.0767 63.1862 38.1485 71.656 45.4368 76.0053C54.1973 81.233 62.9547 86.3853 71.8699 91.337C83.3925 97.7369 94.8496 104.275 106.262 110.901L106.472 111.041L106.737 110.902C125.794 99.388 145.01 88.1081 164.227 76.8628C171.426 72.6496 174.653 71.4361 178.343 69.0544C179.211 68.4943 180.124 67.9041 181.151 67.2474C184.951 64.8152 188.617 62.3182 191.97 59.9491L191.971 60.0515C184.029 56.3723 177.298 53.6341 174.254 52.3953C173.621 52.1377 173.145 51.9442 172.854 51.8215ZM149.784 38.1858C144.144 35.0933 136.266 30.4481 129.383 26.388C126.026 24.408 122.906 22.5663 120.396 21.113C116.507 18.8613 114.185 17.221 111.882 15.5941C111.858 15.5767 111.833 15.5594 111.808 15.542C109.949 14.2282 108.086 12.9162 105.356 11.254L105.647 11.2522C104.98 11.6138 104.271 12.0079 103.51 12.442C99.5135 14.7225 94.1108 18.0966 88.6611 21.5C88.6568 21.5025 88.6525 21.505 88.6481 21.5076C83.2275 24.8928 78.0305 28.843 73.963 31.163C59.7887 39.2475 50.6892 43.6158 45.9739 45.6288C37.7258 49.1498 29.6377 55.3151 21.0749 58.6781C20.0515 58.9136 21.0594 57.2851 22.7862 56.5772C22.8476 56.5499 22.9089 56.5225 22.9702 56.4952C23.5534 56.2334 24.0616 56.0007 24.7607 55.6446C25.7596 55.1042 26.4904 54.6807 27.1572 54.2939C28.9067 53.2788 41.1434 46.3893 45.7483 44.4234C50.2233 42.513 58.4212 37.018 72.6862 28.8816C76.6784 26.6046 82.4864 23.9591 87.936 20.5557C87.951 20.5465 87.9659 20.5372 87.9808 20.5279C93.3906 17.1495 98.8458 13.7423 102.909 11.4236C103.669 10.9899 104.38 10.5944 105.051 10.2303L105.545 9.97452L105.939 10.2247C108.811 11.9707 110.763 13.3468 112.663 14.6892C112.686 14.7053 112.708 14.7214 112.731 14.7376C115.012 16.3494 117.227 17.9139 120.973 20.0824C123.538 21.5677 126.695 23.4293 130.074 25.4221C136.928 29.4649 144.694 34.0469 150.286 37.1129C150.791 37.3898 151.088 37.8549 150.949 38.1512C150.81 38.4471 150.289 38.4623 149.784 38.1858ZM146.041 44.5253C130.364 37.0864 115.366 28.2639 101.105 18.7592L109.993 18.7029C109.311 19.0371 108.629 19.3694 107.946 19.6997C103.906 22.0053 98.2525 25.1967 92.6065 28.383C92.5425 28.4187 92.4785 28.4544 92.4145 28.49C86.8296 31.6418 81.2694 34.78 77.2878 37.0509C63.1137 45.1354 54.2831 50.0396 49.5678 52.0526C45.1711 53.9295 44.0328 54.5915 42.3445 55.5716C42.2983 55.598 42.2522 55.6244 42.206 55.6508C42.2034 55.6534 42.2009 55.656 42.1983 55.6586C42.1482 55.7054 42.104 55.7413 42.0809 55.7591C42.0339 55.7955 41.9939 55.8221 41.9789 55.8321C41.9442 55.8552 41.9142 55.873 41.9036 55.8794C41.8602 55.9057 41.81 55.9347 41.7775 55.953C41.4742 56.1231 40.5158 56.6407 39.7462 57.0334C38.9575 57.4357 38.3809 57.6977 37.7713 57.9713C37.7096 57.9989 37.6478 58.0265 37.586 58.0541C37.0364 58.3004 36.4384 58.5685 35.5895 58.9759C35.0723 59.2241 34.5706 59.1705 34.4686 58.856C34.367 58.5416 34.7033 58.0859 35.2201 57.8377C36.1132 57.409 36.7495 57.1238 37.3016 56.8763C37.363 56.849 37.4243 56.8217 37.4856 56.7943C38.069 56.5325 38.578 56.2992 39.2775 55.9429C40.276 55.4027 41.0059 54.9798 41.6726 54.593C43.4206 53.5787 44.737 52.815 49.3416 50.8493C53.8166 48.9391 62.4218 44.1705 76.6875 36.0338C80.6765 33.7587 86.2431 30.6168 91.8233 27.4676C91.8888 27.4305 91.9543 27.3934 92.0198 27.3564C97.6689 24.1683 103.315 20.9829 107.346 18.6827C108.005 18.3062 108.664 17.9289 109.321 17.5508L101.762 17.5987C116.762 26.2194 131.796 34.1511 146.541 43.4518C149.475 45.06 152.144 46.5509 154.617 47.9325C161.894 51.9985 167.479 55.1181 173.139 57.4996C174.38 58.0217 177.496 59.6328 181.984 61.9844C183.3 62.6735 184.741 63.4315 186.3 64.2501C187.114 64.6777 187.96 65.1222 188.838 65.5827L188.737 54.4755C185.648 56.4356 182.161 58.6521 178.342 61.0959C177.326 61.7465 176.417 62.3328 175.551 62.8917C171.848 65.282 168.925 67.1696 161.654 71.4243C152.709 76.6593 137.606 85.2386 129.495 89.768C125.432 92.0366 123.118 93.282 121.474 94.1519C121.017 94.3942 120.613 94.6053 120.243 94.7997C119.276 95.3075 118.526 95.7024 117.556 96.2428C112.224 99.2139 108.196 101.645 103.141 104.814L109.873 104.822C108.26 103.921 106.537 102.967 104.638 101.918C104.135 101.64 103.832 101.169 103.962 100.867C104.091 100.565 104.604 100.545 105.107 100.823C107.055 101.899 108.822 102.877 110.479 103.803L102.539 103.793C107.569 100.641 111.636 98.1887 117 95.1999C118.012 94.6357 118.816 94.2135 119.8 93.6967C120.164 93.5051 120.554 93.3007 120.988 93.071C122.604 92.2155 124.894 90.9833 128.936 88.7267C137.033 84.2054 152.113 75.6382 161.031 70.4192C168.231 66.2061 171.097 64.3562 174.787 61.9745C175.655 61.4146 176.568 60.8247 177.593 60.1683C181.47 57.6873 185.01 55.4375 188.134 53.4546L188.253 66.6143C187.423 66.1784 186.621 65.7571 185.848 65.3511C184.291 64.5336 182.852 63.7777 181.542 63.0914C176.963 60.6924 174.034 59.182 172.971 58.7347C167.113 56.2696 161.285 53.0139 153.94 48.9099C151.495 47.5433 148.88 46.0821 146.041 44.5253ZM76.3705 84.8169C76.8732 85.0961 77.1734 85.5669 77.042 85.8679C76.9104 86.1687 76.3968 86.1867 75.8942 85.9075C73.2393 84.4329 71.3259 83.3809 69.83 82.5588C67.0613 81.0371 65.723 80.302 63.7628 79.1269C58.7025 76.0933 53.811 73.1734 49.4099 70.5471C42.0943 66.1815 36.1318 62.6238 33.0047 60.6937C32.5144 60.391 32.256 59.9203 32.4277 59.6429C32.5996 59.366 33.136 59.3869 33.626 59.6892C36.7312 61.6057 42.6484 65.1371 49.9367 69.4864C54.343 72.1158 59.2514 75.0438 64.3434 78.0965C66.2446 79.2362 67.5077 79.931 70.2149 81.4188C71.7094 82.2401 73.6448 83.3029 76.3705 84.8169Z" fill="white" fill-opacity="0.5"/>
<path d="M107 208L192 159V61L107 111V208Z" fill="url(#paint2_linear_113_2)"/>
<path d="M120.335 208.896C123.035 207.4 126.177 205.199 128.927 203.854C128.965 203.835 129.004 203.816 129.042 203.797C130.166 203.247 131.329 202.718 132.736 202.078C132.915 201.997 133.099 201.913 133.286 201.828C134.954 201.069 136.999 200.131 139.761 198.808C149.033 194.366 155.776 189.879 157.873 188.483C162.08 185.683 166.737 182.991 173.091 179.317C173.672 178.981 174.268 178.638 174.878 178.285C175.373 177.999 175.914 177.99 176.089 178.266C176.263 178.543 176.003 178.999 175.508 179.285C174.911 179.631 174.328 179.968 173.76 180.296C173.758 180.297 173.755 180.299 173.753 180.3C167.358 183.997 162.803 186.631 158.696 189.365C156.553 190.792 149.643 195.388 140.142 199.94C137.352 201.277 135.284 202.226 133.606 202.99C133.422 203.074 133.243 203.155 133.069 203.234C133.065 203.236 133.061 203.238 133.057 203.239C131.641 203.884 130.526 204.39 129.451 204.916C129.428 204.928 129.406 204.939 129.383 204.95C126.603 206.311 123.526 208.478 120.907 209.929C120.407 210.206 119.873 210.199 119.715 209.914C119.558 209.628 119.835 209.173 120.335 208.896ZM170.017 69.8033C167.668 71.6872 164.226 73.6561 161.111 75.265C157.975 76.885 155.048 78.2017 153.645 78.7783C152.274 79.3419 150.834 80.1104 149.136 81.0609C148.746 81.2789 148.343 81.5065 147.927 81.7419C146.549 82.5193 145.017 83.3841 143.306 84.2827C137.018 87.5837 133.024 89.9159 130.194 91.6172C129.611 91.9672 129.071 92.2952 128.565 92.6021C128.564 92.6026 128.563 92.6032 128.563 92.6037C126.653 93.7621 125.229 94.6262 123.84 95.287C121.368 96.4633 119.341 97.4095 116.814 98.4147C113.329 99.8011 108.813 102.536 106.052 104.617C105.9 104.731 105.745 104.849 105.589 104.967C105.123 105.318 104.633 105.688 104.107 106.081L101.474 107.454L101.293 111C101.531 113.157 101.785 115.784 101.987 119.313C102.206 123.134 102.189 126.464 102.127 129.411C102.11 130.255 102.088 131.061 102.067 131.835C102.017 133.788 101.971 135.536 101.998 137.182C102.163 147.393 101.949 153.282 101.628 156.983C101.381 159.829 101.062 161.419 100.833 162.566C100.763 162.913 100.701 163.219 100.652 163.507C100.217 166.077 100.021 168.437 99.7856 171.276C99.7334 171.906 99.6788 172.561 99.6196 173.246C99.4216 175.536 99.4558 177.243 99.5395 178.581C99.5761 179.167 99.6212 179.682 99.6647 180.167C99.6657 180.176 99.6667 180.185 99.6677 180.194C99.6737 180.262 99.6792 180.329 99.6851 180.396C99.6896 180.446 99.6953 180.497 99.6997 180.547C99.7056 180.567 99.7094 180.584 99.7128 180.598C99.7155 180.608 99.7174 180.616 99.7186 180.622C99.7191 180.623 99.7196 180.624 99.7201 180.625C99.7427 180.72 99.7517 180.802 99.7536 180.819C99.7569 180.848 99.7584 180.874 99.7594 180.887C99.7648 180.958 99.768 181.048 99.7696 181.108C99.7738 181.263 99.7788 181.532 99.7841 181.948C99.8012 182.31 99.8302 182.657 99.8672 183.092C99.8696 183.119 99.872 183.147 99.8744 183.174C99.9105 183.598 99.9519 184.095 99.9924 184.717C100.029 185.284 99.7967 185.805 99.4725 185.881C99.1483 185.957 98.8557 185.559 98.8187 184.992C98.7805 184.405 98.7412 183.941 98.7051 183.516C98.7027 183.489 98.7002 183.463 98.6978 183.436C98.6602 182.993 98.6251 182.574 98.6046 182.123C98.5978 181.972 98.5925 181.816 98.5886 181.67C98.574 181.408 98.5489 181.11 98.5173 180.753C98.5109 180.681 98.5051 180.607 98.4983 180.532C98.4548 180.047 98.4042 179.482 98.3643 178.846C98.2712 177.355 98.2362 175.466 98.4517 172.974C98.5082 172.32 98.5607 171.687 98.6119 171.068C98.8478 168.218 99.057 165.683 99.5191 162.954C99.5825 162.58 99.655 162.221 99.7317 161.837C99.9592 160.699 100.231 159.341 100.46 156.709C100.766 153.184 100.981 147.435 100.817 137.282C100.789 135.554 100.838 133.69 100.889 131.704C100.909 130.945 100.928 130.168 100.945 129.375C101.005 126.474 101.022 123.249 100.811 119.56C100.6 115.876 100.332 113.208 100.085 111L100.304 106.703L103.494 105.04C103.886 104.746 104.259 104.465 104.618 104.193C104.687 104.141 104.756 104.089 104.824 104.036C104.91 103.972 104.995 103.908 105.079 103.845C108.022 101.627 112.821 98.7074 116.671 97.1759C119.087 96.2148 121.028 95.3101 123.486 94.1403C124.695 93.565 125.914 92.8257 127.785 91.691C128.31 91.3725 128.888 91.0232 129.53 90.6372C132.412 88.9053 136.466 86.5371 142.824 83.1991C144.482 82.3289 145.947 81.5018 147.317 80.7288C147.742 80.4887 148.16 80.2534 148.569 80.0241C150.276 79.0689 151.879 78.2052 153.464 77.5537C154.767 77.0182 157.601 75.7462 160.651 74.1705C163.724 72.5835 166.898 70.7494 168.964 69.0934C169.178 68.9212 169.395 68.7483 169.612 68.5752C171.477 67.0848 173.379 65.5654 174.759 64.0861C177.537 60.3951 182.388 56.8785 187.679 53.6537L201.167 46.5051L200.523 61C200.624 67.4327 200.212 74.1154 200.101 79.4074C200.098 79.5438 200.095 79.6803 200.092 79.8167C199.841 91.8079 199.873 100.523 199.884 103.493C199.885 103.632 199.885 103.758 199.886 103.871C199.886 103.972 199.887 104.064 199.887 104.144C199.89 105.354 199.932 106.425 199.976 107.547C199.978 107.608 199.981 107.669 199.983 107.731C200.029 108.916 200.075 110.16 200.071 111.631C200.056 117.099 200.11 121.556 200.167 125.413C200.177 126.127 200.187 126.821 200.197 127.498C200.197 127.5 200.197 127.502 200.197 127.504C200.243 130.474 200.284 133.109 200.285 135.61C200.285 140.17 200.36 143.25 200.441 145.646C200.466 146.398 200.492 147.09 200.516 147.743C200.57 149.156 200.616 150.39 200.633 151.663C200.663 154.056 200.745 156.259 200.824 158.429C200.83 158.62 200.837 158.81 200.844 159L200.56 164.547L196.417 166.662C196.414 166.663 196.412 166.665 196.409 166.666C194.414 167.915 192.435 169.146 190.303 170.378C189.808 170.664 189.265 170.671 189.091 170.394C188.919 170.117 189.18 169.661 189.675 169.375C191.746 168.179 193.677 166.978 195.671 165.73C195.722 165.698 195.773 165.666 195.824 165.634L199.412 163.803L199.658 159C199.653 158.866 199.647 158.731 199.643 158.596C199.564 156.432 199.483 154.189 199.452 151.751C199.436 150.524 199.392 149.358 199.34 147.973C199.315 147.312 199.288 146.601 199.261 145.809C199.179 143.377 199.103 140.256 199.102 135.652C199.102 133.181 199.062 130.58 199.016 127.611C199.006 126.93 198.995 126.23 198.984 125.507C198.927 121.64 198.873 117.16 198.888 111.662C198.892 110.273 198.85 109.093 198.804 107.913C198.801 107.847 198.799 107.78 198.796 107.714C198.753 106.602 198.708 105.472 198.705 104.194C198.704 104.023 198.704 103.805 198.703 103.542C198.692 100.567 198.659 91.8174 198.912 79.7823C198.912 79.745 198.913 79.7076 198.914 79.6703C199.083 71.6062 199.179 67.0567 198.887 63.6311C198.805 62.6731 198.745 61.8008 198.7 61L199.206 49.6052L188.603 55.2249C187.387 56.0351 186.349 56.6812 185.436 57.2397C185.166 57.4046 184.911 57.5608 184.667 57.7089C183.613 58.349 182.781 58.855 181.983 59.4192C179.571 61.1259 177.956 62.5464 176.138 64.4948C174.597 66.1464 172.502 67.8192 170.667 69.2843C170.664 69.2865 170.661 69.2887 170.659 69.2909C170.441 69.4647 170.226 69.6357 170.017 69.8033ZM100.777 192.921C100.768 193.492 100.496 193.95 100.17 193.945C99.8439 193.939 99.5867 193.471 99.5963 192.9C99.6196 191.538 99.6429 190.176 99.6662 188.814C99.676 188.243 99.9476 187.785 100.273 187.79C100.6 187.796 100.857 188.264 100.847 188.835C100.824 190.197 100.801 191.559 100.777 192.921ZM175.053 73.6617C174.606 74.0013 174.022 74.1048 173.751 73.8936C173.48 73.6822 173.624 73.2357 174.07 72.8963C174.307 72.7168 174.692 72.4167 175.211 72.0126C177.835 69.968 183.88 65.2578 191.403 59.9846L193.267 58.9965L193.178 61C193.488 64.8752 193.75 69.0294 193.902 73.2549C193.945 74.4518 193.988 75.5239 194.029 76.5455C194.204 80.915 195.043 84.4229 195.009 92.7803C194.919 114.865 194.293 136.938 194.096 159L194.028 160.314L193.047 160.815C181.687 167.229 170.407 173.77 159.303 180.612C150.673 185.931 141.944 191.014 133.148 196.062C125.817 200.269 112.092 207.482 108.902 209.248C108.402 209.526 107.869 209.518 107.711 209.233C107.553 208.947 107.831 208.492 108.331 208.215C111.498 206.46 125.178 199.272 132.481 195.081C141.26 190.043 149.972 184.971 158.585 179.663C169.724 172.799 180.951 166.06 192.233 159.404L192.452 159.293L192.467 159C192.244 136.918 192.305 114.817 192.395 92.734C192.429 84.4578 193.025 81.089 192.851 76.7352C192.81 75.7112 192.766 74.6331 192.723 73.4252C192.568 69.1343 192.299 64.9194 191.982 61L192.009 61.0158C184.72 66.1366 178.862 70.6997 176.239 72.7422C175.704 73.1589 175.302 73.4718 175.053 73.6617ZM151.889 86.7143C146.434 90.0269 138.535 94.4892 131.631 98.388C128.264 100.289 125.133 102.056 122.639 103.491C118.775 105.715 116.212 106.895 113.671 108.064C113.644 108.076 113.617 108.089 113.589 108.102C111.651 108.994 109.712 109.889 107.157 111.267L107.31 111C107.276 111.899 107.253 112.873 107.243 113.944C107.199 118.509 107.391 124.826 107.585 131.197C107.585 131.202 107.585 131.207 107.585 131.212C107.778 137.55 108.571 143.978 108.526 148.624C108.367 164.813 107.555 174.795 106.918 179.842C105.804 188.671 107.054 198.684 105.644 207.703C105.332 208.698 104.433 207.02 104.692 205.187C104.699 205.12 104.706 205.054 104.713 204.988C104.781 204.357 104.836 203.805 104.881 203.028C104.917 201.902 104.92 201.064 104.922 200.299C104.926 198.293 105.141 184.362 105.763 179.433C106.368 174.643 105.752 164.87 105.912 148.578C105.957 144.018 106.598 137.718 106.404 131.347C106.404 131.329 106.403 131.312 106.403 131.294C106.21 124.969 106.016 118.591 106.06 113.95C106.071 112.881 106.094 111.904 106.126 111L106.154 110.457L106.557 110.247C109.254 108.789 111.29 107.85 113.276 106.936C113.301 106.925 113.326 106.913 113.352 106.902C115.869 105.743 118.314 104.618 122.035 102.476C124.584 101.01 127.75 99.2207 131.139 97.3072C138.013 93.4252 145.804 89.0268 151.212 85.7426C151.7 85.4463 152.248 85.4237 152.435 85.6921C152.622 85.9605 152.377 86.4179 151.889 86.7143ZM155.508 93.1257C141.489 102.813 126.627 111.247 111.54 118.719L115.955 111C115.889 111.924 115.819 112.848 115.747 113.77C115.703 118.385 115.611 124.825 115.518 131.257C115.517 131.33 115.516 131.402 115.514 131.475C115.422 137.837 115.332 144.171 115.287 148.718C115.128 164.907 114.915 174.926 114.278 179.973C113.684 184.679 113.682 185.986 113.678 187.923C113.677 187.975 113.677 188.028 113.676 188.081C113.677 188.084 113.678 188.088 113.679 188.091C113.694 188.158 113.703 188.214 113.707 188.242C113.715 188.301 113.717 188.348 113.719 188.366C113.721 188.408 113.721 188.442 113.721 188.454C113.722 188.505 113.722 188.562 113.721 188.599C113.716 188.944 113.68 190.024 113.631 190.88C113.581 191.757 113.517 192.382 113.446 193.042C113.439 193.108 113.432 193.175 113.424 193.242C113.36 193.836 113.29 194.482 113.215 195.413C113.168 195.981 112.869 196.384 112.546 196.314C112.224 196.244 111.999 195.728 112.045 195.161C112.125 194.181 112.199 193.494 112.264 192.897C112.271 192.83 112.278 192.764 112.286 192.698C112.353 192.067 112.408 191.514 112.453 190.737C112.49 189.611 112.492 188.774 112.494 188.009C112.499 186.004 112.502 184.494 113.124 179.566C113.729 174.776 113.946 165.017 114.106 148.724C114.151 144.168 114.242 137.827 114.333 131.47C114.334 131.396 114.335 131.321 114.336 131.246C114.429 124.812 114.522 118.381 114.566 113.776C114.575 112.85 114.582 111.925 114.587 111L110.847 117.539C125.535 109.008 139.674 100.123 154.83 92.1548C157.667 90.4321 160.272 88.8784 162.686 87.439C169.789 83.2033 175.241 79.9521 180.092 76.2658C181.156 75.4576 184.085 73.5795 188.332 70.8885C189.576 70.0999 190.942 69.2368 192.419 68.3035C193.32 67.7337 194.263 67.1377 195.245 66.5164L185.6 61C185.713 64.5027 185.843 68.4304 185.998 72.7202C186.041 73.917 186.084 74.9892 186.125 76.0108C186.299 80.3805 186.438 83.8296 186.404 92.1873C186.362 102.471 186.069 119.701 185.844 128.915C185.731 133.531 185.626 136.136 185.539 137.979C185.515 138.492 185.491 138.944 185.471 139.358C185.416 140.44 185.375 141.28 185.347 142.381C185.194 148.428 185.238 153.092 185.395 159L188.701 153.278C187.133 154.239 185.466 155.269 183.63 156.406C183.145 156.707 182.589 156.738 182.39 156.478C182.19 156.217 182.421 155.761 182.905 155.461C184.789 154.294 186.499 153.238 188.11 152.251L184.21 159C184.055 153.121 184.012 148.414 184.166 142.33C184.195 141.181 184.24 140.281 184.296 139.18C184.316 138.772 184.338 138.336 184.361 137.849C184.447 136.037 184.55 133.459 184.663 128.868C184.887 119.669 185.18 102.465 185.222 92.2127C185.255 83.9366 185.121 80.5544 184.946 76.2005C184.906 75.1768 184.862 74.0994 184.818 72.892C184.661 68.5343 184.529 64.5459 184.414 61L195.846 67.5384C194.909 68.1314 194.008 68.7011 193.145 69.2464C191.671 70.1786 190.308 71.0399 189.068 71.8254C184.736 74.5707 181.985 76.3388 181.074 77.0312C176.053 80.8466 170.364 84.2387 163.195 88.5132C160.807 89.9367 158.254 91.4582 155.508 93.1257ZM155.101 172.548C155.587 172.249 156.141 172.22 156.339 172.482C156.536 172.744 156.303 173.199 155.818 173.498C153.253 175.079 151.413 176.223 149.975 177.118C147.314 178.774 146.028 179.575 144.059 180.7C138.977 183.603 134.074 186.416 129.664 188.947C122.333 193.154 116.358 196.582 113.169 198.349C112.669 198.626 112.135 198.619 111.977 198.334C111.82 198.048 112.098 197.593 112.598 197.316C115.764 195.561 121.694 192.159 128.998 187.967C133.413 185.434 138.331 182.61 143.446 179.689C145.355 178.598 146.57 177.843 149.172 176.223C150.608 175.329 152.468 174.171 155.101 172.548Z" fill="white" fill-opacity="0.5"/>
<defs>
<linearGradient id="paint0_linear_113_2" x1="63.5" y1="61" x2="63.5" y2="208" gradientUnits="userSpaceOnUse">
<stop stop-color="white" stop-opacity="0.1"/>
<stop offset="1" stop-color="white" stop-opacity="0"/>
</linearGradient>
<linearGradient id="paint1_linear_113_2" x1="106.75" y1="11" x2="106.75" y2="110.5" gradientUnits="userSpaceOnUse">
<stop stop-color="white" stop-opacity="0.1"/>
<stop offset="1" stop-color="white" stop-opacity="0"/>
</linearGradient>
<linearGradient id="paint2_linear_113_2" x1="149.5" y1="61" x2="149.5" y2="208" gradientUnits="userSpaceOnUse">
<stop stop-color="white" stop-opacity="0.1"/>
<stop offset="1" stop-color="white" stop-opacity="0"/>
</linearGradient>
</defs>
</svg>
